<svg id="Layer_1" data-name="Layer 1" xmlns="http://www.w3.org/2000/svg" viewBox="0 0 304.44 91.69"><defs><style>.cls-1{fill:#d8d8d8;}</style></defs><title>arty-parties-typo-home</title><path class="cls-1" d="M41.76.15,51.32,86.3,40.11,87.55,38.66,74.72,20.2,76.45l-6,14L1.78,91.85ZM37,59.65l-1.89-18.1L27.13,60.37Z" transform="translate(-1.78 -0.15)"/><path class="cls-1" d="M67.16,2.06l15.58.1c5.15,0,8.72,3.42,10.73,8.16s3,9.23,1.61,18l-.31,2.08a46.57,46.57,0,0,1-5.2,15.39c-2.2,4.05-3.73,5.84-6.63,7.83l6.22,28.43L77.79,83.34,69.73,48,64,84.88,54,86Zm18.4,27.08a14.76,14.76,0,0,0-.63-7.72,5.47,5.47,0,0,0-5.27-3.1l-5.37.09L70.77,41.15,74.48,41v0l3.17-.15C81.08,40.68,84.61,35.32,85.56,29.14Z" transform="translate(-1.78 -0.15)"/><path class="cls-1" d="M130.11,2.44l-2.19,15-10.12.18-9.21,62.24-8.77,1,9.42-63.07L98.45,18l2.4-15.73Z" transform="translate(-1.78 -0.15)"/><path class="cls-1" d="M140.37,2.5l3.4,25.55L154.31,2.58l8.38,0L145.24,44.46l-4.53,31.83-7.88.88,4.66-32.24L131.38,2.45Z" transform="translate(-1.78 -0.15)"/><path class="cls-1" d="M173.75,51.67l6.71-48.93,11.79.07c3.18,0,5.54,2.33,7.12,6.91s1.94,10.1,1.08,16.6a43.08,43.08,0,0,1-5.55,16.84c-2.88,4.8-6,7.34-9.15,7.59l-5.07.39-2.86,21-7,.78Zm16.65-35.3-5,.09c-.93,6.93-1.89,13.87-2.83,20.83l5.05-.22c2.72-.15,5.6-5,6.35-10.53S193.1,16.32,190.4,16.37Z" transform="translate(-1.78 -0.15)"/><path class="cls-1" d="M216.88,1.63l5,65.58-6.48.72-.76-9.77-10.55,1L200.6,69.59l-7,.78ZM213.75,46.7l-1-13.73-4.65,14.15Z" transform="translate(-1.78 -0.15)"/><path class="cls-1" d="M231.6,3.05l9.16.05c3.06,0,5.16,2.63,6.32,6.29s1.71,7.13.85,13.91l-.19,1.6a43.26,43.26,0,0,1-3.19,11.84c-1.33,3.1-2.25,4.47-4,6l3.52,22-6.74.75-4.52-27.26-3.59,28.17-5.82.65Zm10.67,20.82a14.67,14.67,0,0,0-.32-5.94,3.23,3.23,0,0,0-3.1-2.41l-3.16.05L233.48,33l2.18-.11v0l1.86-.1C239.55,32.72,241.67,28.62,242.27,23.87Z" transform="translate(-1.78 -0.15)"/><path class="cls-1" d="M269.22,3.27,267.8,15l-6.15.11-5.93,48.3-5.27.59,6-48.8-6.47.11,1.53-12.15Z" transform="translate(-1.78 -0.15)"/><path class="cls-1" d="M270.46,3.28l4.89,0L268.27,62l-5,.56Z" transform="translate(-1.78 -0.15)"/><path class="cls-1" d="M293.21,3.28l-1.33,11.24-9.18.16-1.39,11.57,7-.28-1.33,11.38-7,.46-1.39,11.67,9.32-.83L286.55,60l-14.2,1.59,7-58.44Z" transform="translate(-1.78 -0.15)"/><path class="cls-1" d="M296.12,48c1.22-.1,2.86-2.81,3.21-5.87.59-5.06-2-5.57-3.37-6.83-2.43-2.16-4.18-7.66-3.28-15.33,1.11-9.46,5-17,8.68-17,3.29,0,5.28,6.25,4.79,14.33l-4.53,2.42c.34-3-.36-5.55-1.54-5.53s-2.51,2.62-2.87,5.69c-.58,5,1.75,6.25,3.13,7.32,2.49,1.89,4.26,7,3.37,14.67-1.06,9.29-5.2,17.16-8.88,17.57-3.45.39-5.86-5.71-5.38-14.11l4.76-2.73c-.36,3.13.68,5.56,1.93,5.45Z" transform="translate(-1.78 -0.15)"/></svg>