<svg id="Layer_1" data-name="Layer 1" xmlns="http://www.w3.org/2000/svg" viewBox="0 0 219.6 135.7"><defs><style>.cls-1,.cls-4,.cls-6,.cls-7{fill:none;stroke-miterlimit:10;}.cls-1,.cls-4{stroke:#323392;}.cls-1{stroke-width:4.9px;}.cls-2{fill:#323392;}.cls-3{fill:#f9537e;}.cls-4,.cls-6,.cls-7{stroke-width:6.83px;}.cls-5{fill:#eeeded;}.cls-6{stroke:#eeeded;}.cls-7{stroke:#f9537e;}</style></defs><title>filter-icons</title><ellipse class="cls-1" cx="12.76" cy="12.65" rx="10.31" ry="10.2"/><line class="cls-1" x1="19.93" y1="19.16" x2="28.36" y2="26.82"/><polygon class="cls-2" points="48.22 27.13 55.06 21.76 55.14 13.02 65.14 0.02 38.14 0.02 48.14 13.02 48.22 27.13"/><path class="cls-2" d="M90.4,2.42,84.75,20.3H81L85.47,5.91H78.22V2.42Z" transform="translate(-1.03 0.02)"/><path class="cls-2" d="M101.74.14,94.08,22.49H91L98.61.14Z" transform="translate(-1.03 0.02)"/><path class="cls-2" d="M82.89,22.68A5.94,5.94,0,0,1,88,25.38a10.51,10.51,0,0,1,1.85,6.3A10.55,10.55,0,0,1,88,38a6,6,0,0,1-5.09,2.68c-4.4,0-6.94-4.21-6.94-9S78.51,22.68,82.89,22.68Zm0,3.61a2.6,2.6,0,0,0-2.19,1.16,7.19,7.19,0,0,0-1.17,4.23,7.1,7.1,0,0,0,1.17,4.23,2.66,2.66,0,0,0,4.39,0,7.13,7.13,0,0,0,1.16-4.23,7.19,7.19,0,0,0-1.16-4.23A2.6,2.6,0,0,0,82.88,26.29Z" transform="translate(-1.03 0.02)"/><path class="cls-2" d="M100.73,22.81l-3.09,5.38a6.3,6.3,0,0,1,4.13,2,6.22,6.22,0,0,1-.15,8.68,6.08,6.08,0,0,1-4.43,1.81,6.23,6.23,0,0,1-6.26-6.23,6.38,6.38,0,0,1,.77-3c.09-.17.25-.49.33-.61l4.63-8Zm-.81,11.61a2.73,2.73,0,0,0-2.7-2.7h0a2.69,2.69,0,1,0,2.71,2.69Z" transform="translate(-1.03 0.02)"/><path class="cls-3" d="M92.4,97.42,86.75,115.3H83l4.48-14.39H80.22V97.42Z" transform="translate(-1.03 0.02)"/><path class="cls-3" d="M103.74,95.14l-7.66,22.35H93l7.66-22.35Z" transform="translate(-1.03 0.02)"/><path class="cls-3" d="M84.89,117.68a5.94,5.94,0,0,1,5.09,2.7A11.69,11.69,0,0,1,90,133a6,6,0,0,1-5.09,2.68c-4.4,0-6.94-4.21-6.94-9S80.51,117.68,84.89,117.68Zm0,3.61a2.6,2.6,0,0,0-2.19,1.16,7.19,7.19,0,0,0-1.17,4.23,7.1,7.1,0,0,0,1.17,4.23,2.66,2.66,0,0,0,4.39,0,8.29,8.29,0,0,0,0-8.46A2.6,2.6,0,0,0,84.88,121.29Z" transform="translate(-1.03 0.02)"/><path class="cls-3" d="M102.73,117.81l-3.09,5.38a6.3,6.3,0,0,1,4.13,2,6.22,6.22,0,0,1-.15,8.68,6.08,6.08,0,0,1-4.43,1.81,6.23,6.23,0,0,1-6.26-6.23,6.38,6.38,0,0,1,.77-3c.09-.17.25-.49.33-.61l4.63-8Zm-.81,11.61a2.73,2.73,0,0,0-2.7-2.7h0a2.69,2.69,0,1,0,2.71,2.69Z" transform="translate(-1.03 0.02)"/><path class="cls-2" d="M90.4,96.42,84.75,114.3H81l4.48-14.39H78.22V96.42Z" transform="translate(-1.03 0.02)"/><path class="cls-2" d="M101.74,94.14l-7.66,22.35H91l7.66-22.35Z" transform="translate(-1.03 0.02)"/><path class="cls-2" d="M82.89,116.68a5.94,5.94,0,0,1,5.09,2.7A11.69,11.69,0,0,1,88,132a6,6,0,0,1-5.09,2.68c-4.4,0-6.94-4.21-6.94-9S78.51,116.68,82.89,116.68Zm0,3.61a2.6,2.6,0,0,0-2.19,1.16,7.19,7.19,0,0,0-1.17,4.23,7.1,7.1,0,0,0,1.17,4.23,2.66,2.66,0,0,0,4.39,0,8.29,8.29,0,0,0,0-8.46A2.6,2.6,0,0,0,82.88,120.29Z" transform="translate(-1.03 0.02)"/><path class="cls-2" d="M100.73,116.81l-3.09,5.38a6.3,6.3,0,0,1,4.13,2,6.22,6.22,0,0,1-.15,8.68,6.08,6.08,0,0,1-4.43,1.81,6.23,6.23,0,0,1-6.26-6.23,6.38,6.38,0,0,1,.77-3c.09-.17.25-.49.33-.61l4.63-8Zm-.81,11.61a2.73,2.73,0,0,0-2.7-2.7h0a2.69,2.69,0,1,0,2.71,2.69Z" transform="translate(-1.03 0.02)"/><polygon class="cls-3" points="48.8 125.13 55.63 119.76 55.72 111.02 65.72 98.02 38.72 98.02 48.72 111.02 48.8 125.13"/><polygon class="cls-2" points="46.8 124.13 53.63 118.76 53.72 110.02 63.72 97.02 36.72 97.02 46.72 110.02 46.8 124.13"/><path class="cls-2" d="M137.87,2.61V9.68h-8.73V38.12H122V9.68h-8.74V2.61Z" transform="translate(-1.03 0.02)"/><path class="cls-3" d="M138.87,96.61v7.07h-8.73v28.44H123V103.68h-8.74V96.61Z" transform="translate(-1.03 0.02)"/><path class="cls-2" d="M137.87,94.61v7.07h-8.73v28.44H122V101.68h-8.74V94.61Z" transform="translate(-1.03 0.02)"/><g id="hover_-_i_want_to_say_i_made_dis" data-name="hover - i want to say i made dis"><polygon class="cls-2" points="161.72 19.05 151.6 8.94 146.61 13.92 161.72 29.03 166.71 24.04 166.71 24.04 175.9 14.85 180.36 19.32 181.8 3.96 166.44 5.4 170.91 9.86 161.72 19.05"/></g><g id="hover_-_i_want_to_say_i_made_dis-2" data-name="hover - i want to say i made dis"><polygon class="cls-3" points="163.72 110.05 153.6 99.94 148.61 104.92 163.72 120.03 168.71 115.04 168.71 115.04 177.9 105.85 182.36 110.32 183.8 94.95 168.44 96.4 172.91 100.86 163.72 110.05"/></g><g id="hover_-_i_want_to_say_i_made_dis-3" data-name="hover - i want to say i made dis"><polygon class="cls-2" points="161.72 109.05 151.6 98.94 146.61 103.92 161.72 119.03 166.71 114.04 166.71 114.04 175.9 104.85 180.36 109.32 181.8 93.95 166.44 95.4 170.91 99.86 161.72 109.05"/></g><line class="cls-4" x1="216.19" y1="4.33" x2="191.58" y2="28.94"/><line class="cls-4" x1="191.58" y1="4.33" x2="216.19" y2="28.94"/><polygon class="cls-5" points="48.22 74.13 55.06 68.76 55.14 60.02 65.14 47.02 38.14 47.02 48.14 60.02 48.22 74.13"/><path class="cls-5" d="M90.4,49.42,84.75,67.3H81l4.48-14.39H78.22V49.42Z" transform="translate(-1.03 0.02)"/><path class="cls-5" d="M101.74,47.14,94.08,69.49H91l7.66-22.35Z" transform="translate(-1.03 0.02)"/><path class="cls-5" d="M82.89,69.68A5.94,5.94,0,0,1,88,72.38,11.69,11.69,0,0,1,88,85a6,6,0,0,1-5.09,2.68c-4.4,0-6.94-4.21-6.94-9S78.51,69.68,82.89,69.68Zm0,3.61a2.6,2.6,0,0,0-2.19,1.16,7.19,7.19,0,0,0-1.17,4.23,7.1,7.1,0,0,0,1.17,4.23,2.66,2.66,0,0,0,4.39,0,8.29,8.29,0,0,0,0-8.46A2.6,2.6,0,0,0,82.88,73.29Z" transform="translate(-1.03 0.02)"/><path class="cls-5" d="M100.73,69.81l-3.09,5.38a6.3,6.3,0,0,1,4.13,2,6.22,6.22,0,0,1-.15,8.68,6.08,6.08,0,0,1-4.43,1.81,6.23,6.23,0,0,1-6.26-6.23,6.38,6.38,0,0,1,.77-3c.09-.17.25-.49.33-.61l4.63-8Zm-.81,11.61a2.73,2.73,0,0,0-2.7-2.7h0a2.69,2.69,0,1,0,2.71,2.69Z" transform="translate(-1.03 0.02)"/><path class="cls-5" d="M137.87,49.61v7.07h-8.73V85.12H122V56.68h-8.74V49.61Z" transform="translate(-1.03 0.02)"/><g id="hover_-_i_want_to_say_i_made_dis-4" data-name="hover - i want to say i made dis"><polygon class="cls-5" points="161.72 66.05 151.6 55.94 146.61 60.92 161.72 76.03 166.71 71.04 166.71 71.04 175.9 61.85 180.36 66.32 181.8 50.95 166.44 52.4 170.91 56.86 161.72 66.05"/></g><line class="cls-6" x1="216.19" y1="51.33" x2="191.58" y2="75.94"/><line class="cls-6" x1="191.58" y1="51.33" x2="216.19" y2="75.94"/><line class="cls-7" x1="217.19" y1="97.33" x2="192.58" y2="121.94"/><line class="cls-7" x1="192.58" y1="97.33" x2="217.19" y2="121.94"/><line class="cls-4" x1="216.19" y1="95.33" x2="191.58" y2="119.94"/><line class="cls-4" x1="191.58" y1="95.33" x2="216.19" y2="119.94"/></svg>