<svg id="Layer_1" data-name="Layer 1" xmlns="http://www.w3.org/2000/svg" viewBox="0 0 50 50"><defs><style>.cls-1{fill:#f9537e;}.cls-2{fill:#eeeded;}</style></defs><title>interested-button</title><circle class="cls-1" cx="25" cy="25" r="25"/><g id="fb_button" data-name="fb button"><path class="cls-2" d="M9.91,18.21l.49-.94,4.69,2.46-.5.94Z" transform="translate(-3.95 -2.67)"/><path class="cls-2" d="M11.41,15.44h0a.73.73,0,0,1,1-.18,1.35,1.35,0,0,1,.56.83,1.23,1.23,0,0,1,0,.53c0,.1-.27.35-.34.35s-.06-.09,0-.26a.27.27,0,0,0-.18-.33.66.66,0,0,1-.79,0A.69.69,0,0,1,11.41,15.44Z" transform="translate(-3.95 -2.67)"/><path class="cls-2" d="M17.21,14.26l-.4-4.37L20.38,14l-.8.7L18.14,13l.24,2.58L15.84,15l1.45,1.65-.8.7L12.92,13.3Z" transform="translate(-3.95 -2.67)"/><path class="cls-2" d="M20.78,8l1-.38,1.91,4.93-1,.39Z" transform="translate(-3.95 -2.67)"/><path class="cls-2" d="M27.15,9.4,26.7,6.5l1.05-.17.83,5.36L25,9.17l.45,2.91-1.06.16-.82-5.35Z" transform="translate(-3.95 -2.67)"/><path class="cls-2" d="M33.11,6.73l-.11,1-1.29-.14-.46,4.22-1.06-.12.45-4.21-1.29-.14.11-1Z" transform="translate(-3.95 -2.67)"/><path class="cls-2" d="M37.65,8.2l-.36,1-2-.71-.35,1,1.5.54-.36,1-1.5-.53-.36,1,2,.72-.35,1-3-1.07,1.78-5Z" transform="translate(-3.95 -2.67)"/><path class="cls-2" d="M39.29,9l1.43,1a2,2,0,0,1,.85,1.22,1.47,1.47,0,0,1-.25,1.28l-.07.12a1.85,1.85,0,0,1-.85.65,1.22,1.22,0,0,1-.8,0l-.05,2.28-1.07-.73,0-2.79L37.21,14l-.88-.59Zm1.1,2.89a.68.68,0,0,0,.11-.54,1,1,0,0,0-.42-.54l-.5-.34-.82,1.21.34.23h0l.3.2A.73.73,0,0,0,40.39,11.89Z" transform="translate(-3.95 -2.67)"/><path class="cls-2" d="M45.86,14.69l-.79.71-1.42-1.58-.79.71,1.06,1.18-.78.71-1.07-1.18-.79.71,1.42,1.58-.78.7-2.13-2.36,3.93-3.55Z" transform="translate(-3.95 -2.67)"/><path class="cls-2" d="M43.81,19.4a.61.61,0,0,0,.77.27c.42-.23.16-.83.09-1.21a1.66,1.66,0,0,1,.69-1.78,1.62,1.62,0,0,1,1.76,2.7l-.7-.82a.54.54,0,0,0,.2-.72.54.54,0,0,0-.73-.21c-.42.23-.23.82-.15,1.19a1.57,1.57,0,0,1-.64,1.8,1.68,1.68,0,0,1-2.23-.69,1.7,1.7,0,0,1,.39-2.14l.71.81a.6.6,0,0,0-.16.8Z" transform="translate(-3.95 -2.67)"/><path class="cls-2" d="M49.89,23.67l-1,.28-.35-1.25-4.07,1.14-.29-1,4.08-1.14-.35-1.26,1-.28Z" transform="translate(-3.95 -2.67)"/><path class="cls-2" d="M50.27,28.38l-1.06.05-.1-2.12-1.06,0,.07,1.6L47.06,28,47,26.4l-1.07.05.1,2.13L45,28.63l-.14-3.19,5.3-.25Z" transform="translate(-3.95 -2.67)"/><path class="cls-2" d="M49.83,31.61a2.67,2.67,0,0,1-1.16,1.73,2.57,2.57,0,0,1-2,.3A2.5,2.5,0,0,1,45,32.56a2.69,2.69,0,0,1-.35-2.06l.3-1.37,5.16,1.11-.29,1.37Zm-1-.22.08-.34-3.11-.66-.07.34a1.49,1.49,0,0,0,1.22,1.88A1.51,1.51,0,0,0,48.8,31.39Z" transform="translate(-3.95 -2.67)"/><path class="cls-2" d="M44.32,33.62a.67.67,0,0,1,.34.89.68.68,0,0,1-.89.35.67.67,0,0,1-.34-.89A.68.68,0,0,1,44.32,33.62Zm4.37,2-.5,1.13-3.38-1.66.36-.81C46.39,34.74,47.47,35.13,48.69,35.59Z" transform="translate(-3.95 -2.67)"/><path class="cls-2" d="M26.64,25.67A1.74,1.74,0,0,1,28.41,24h1.77l0-4.26-3.55,0a5.22,5.22,0,0,0-5.3,5.14l0,4.26-3.55,0,0,4.26,3.55,0,.06,8.37a15.88,15.88,0,0,0,5.34,1.73l-.07-10.14,3.56,0L32,29l-5.33,0Z" transform="translate(-3.95 -2.67)"/></g></svg>