<svg id="Layer_1" data-name="Layer 1" xmlns="http://www.w3.org/2000/svg" viewBox="0 0 54 54"><defs><style>.cls-1{fill:#f9537e;}.cls-2{fill:none;}.cls-3{fill:#343790;}</style></defs><title>logo-b-mobile-nav</title><g id="logo"><polyline class="cls-1" points="54 0 54 54 0 54"/><path class="cls-2" d="M54.32,40.31H49.1v5.14h5.22a2.57,2.57,0,0,0,2.57-2.57h0A2.62,2.62,0,0,0,54.32,40.31Z" transform="translate(-23.92 -11.22)"/><path class="cls-3" d="M61.29,36.35A8.45,8.45,0,0,0,62.17,27L41.29,47.85v4H55.94a8.66,8.66,0,0,0,5.35-15.51Zm-7,9.1H49.1V40.31h5.22a2.62,2.62,0,0,1,2.57,2.57,2.57,2.57,0,0,1-2.57,2.57Z" transform="translate(-23.92 -11.22)"/><path class="cls-3" d="M55.44,31.2a2.59,2.59,0,0,0-2.58-2.58H49.1v5.15h3.76a2.58,2.58,0,0,0,2.58-2.57Z" transform="translate(-23.92 -11.22)"/><path class="cls-3" d="M23.92,11.22v54L41.29,47.85V22.16H54.41A8.94,8.94,0,0,1,62.17,27L77.92,11.22Z" transform="translate(-23.92 -11.22)"/></g></svg>