<svg id="Layer_1" data-name="Layer 1" xmlns="http://www.w3.org/2000/svg" viewBox="0 0 168 168"><defs><style>.cls-1{fill:#eeeded;}.cls-2{fill:#f9537e;}.cls-3{fill:none;}.cls-4{fill:#343790;}</style></defs><title>logo-bftp-about</title><rect class="cls-1" width="168" height="168"/><path class="cls-2" d="M106.31,21.4h32.56v1.39H107.64V46.25h29.07v1.4H107.64V73.7h-1.33Z" transform="translate(-2.5 -2)"/><path class="cls-2" d="M73.16,94.3v1.34h-20v51H51.82v-51H31.88V94.3Z" transform="translate(-2.5 -2)"/><path class="cls-3" d="M56,53.35H46.85v9.07H56a4.53,4.53,0,0,0,4.53-4.54h0A4.63,4.63,0,0,0,56,53.35Z" transform="translate(-2.5 -2)"/><path class="cls-4" d="M68.31,46.38a14.88,14.88,0,0,0,1.55-16.52L33.09,66.63V73.7h25.8a15.25,15.25,0,0,0,9.42-27.32ZM56,62.42H46.85V53.35H56a4.63,4.63,0,0,1,4.53,4.53A4.53,4.53,0,0,1,56,62.42Z" transform="translate(-2.5 -2)"/><path class="cls-4" d="M33.09,21.4H56.2a15.72,15.72,0,0,1,13.63,8.37L97.59,2H2.5V97.09L33.09,66.51Z" transform="translate(-2.5 -2)"/><path class="cls-4" d="M58,37.31a4.53,4.53,0,0,0-4.53-4.53H46.85v9.06h6.62A4.53,4.53,0,0,0,58,37.31Z" transform="translate(-2.5 -2)"/><path class="cls-3" d="M128.6,105.91h-8.5v15h4.53l10.75-10.75A7.44,7.44,0,0,0,128.6,105.91Z" transform="translate(-2.5 -2)"/><path class="cls-2" d="M120.1,120.9v-15h8.5a7.44,7.44,0,0,1,6.78,4.24l8.27-8.27A19.24,19.24,0,0,0,128.4,94.3H106.34v44.89l18.29-18.29Z" transform="translate(-2.5 -2)"/><path class="cls-2" d="M75.41,170H170.5V74.91Zm53.25-37.25H120.1v13.86H106.34v-7.42l18.29-18.29h4a7.45,7.45,0,0,0,7.55-7.34,7.6,7.6,0,0,0-.77-3.41l8.27-8.27a19.16,19.16,0,0,1-15,30.87Z" transform="translate(-2.5 -2)"/></svg>