<svg id="Layer_1" data-name="Layer 1" xmlns="http://www.w3.org/2000/svg" viewBox="0 0 202.42 43.08"><defs><style>.cls-1{fill:#323392;}</style></defs><title>mbvb-logo</title><g id="logo_mbvb" data-name="logo mbvb"><path class="cls-1" d="M87.28,1.92H99.51A12.3,12.3,0,0,1,112,13.56,12,12,0,0,1,108.52,23l-.4.43c.64.8,1.32,1.52,1.86,2.34a12.42,12.42,0,0,1-8.3,19.1,9.78,9.78,0,0,1-1.53.14H87.72l-.44,0Zm18.66,21.56.89-.75a10.74,10.74,0,0,0,3.85-7.83A11.07,11.07,0,0,0,99.53,3.24c-3.42,0-10.7,0-10.93,0v40.4a5.11,5.11,0,0,0,.53,0c3.51,0,7,0,10.53,0a12.31,12.31,0,0,0,1.82-.16,11.1,11.1,0,0,0,8-16A11.82,11.82,0,0,0,105.94,23.48Z" transform="translate(-3.03 -1.92)"/><path class="cls-1" d="M16.27,18.18H13.74c0-.21,0-.41,0-.62,0-1.69,0-3.39,0-5.09,0-1.15-.6-1.66-1.64-1.5-.72.11-1.14.68-1.15,1.61,0,1.56,0,3.13,0,4.69v.9H8.38V16.63c0-1.34,0-2.68,0-4,0-.59-.07-1.21-.71-1.52a1.37,1.37,0,0,0-2,1.16c-.08,1.66,0,3.32,0,5v.94H3.05V9.08H5.44l0,1.17a2.91,2.91,0,0,1,2.6-1.44,2.5,2.5,0,0,1,2.48,1.53,3.13,3.13,0,0,1,2.87-1.53,2.59,2.59,0,0,1,2.73,2.4c.11,1,.08,2.09.1,3.14C16.28,15.6,16.27,16.86,16.27,18.18Z" transform="translate(-3.03 -1.92)"/><path class="cls-1" d="M58.66,18.18V9.07H61l.06,1.15a2.89,2.89,0,0,1,2.61-1.41,2.55,2.55,0,0,1,2.46,1.52,3.12,3.12,0,0,1,3.35-1.46,2.58,2.58,0,0,1,2.29,2.72c.08,2.17,0,4.34,0,6.57H69.31c0-.21,0-.42,0-.64,0-1.72,0-3.44,0-5.16,0-.86-.4-1.32-1.12-1.4a1.33,1.33,0,0,0-1.61,1.17,4,4,0,0,0-.07.85c0,1.53,0,3.05,0,4.58v.61H64V15.25c0-.95,0-1.91,0-2.86a1.32,1.32,0,0,0-1.87-1.34,1.17,1.17,0,0,0-.87,1.21c0,1.68,0,3.36-.05,5v.88Z" transform="translate(-3.03 -1.92)"/><path class="cls-1" d="M33.75,27.18h2.38v1.11c2.08-1.82,3.93-1.77,5.08.1,0,0,.12,0,.14-.05A3.13,3.13,0,0,1,44.55,27a2.41,2.41,0,0,1,2.27,2.28c.12,2.33,0,4.68,0,7.06h-2.5v-5.7c0-1-.42-1.53-1.27-1.56a1.39,1.39,0,0,0-1.49,1.57c0,1.73,0,3.47,0,5.21,0,.15,0,.3,0,.48H39.07v-.67c0-1.74,0-3.48-.06-5.21,0-1.07-.67-1.48-1.71-1.29-.69.12-1,.63-1,1.54,0,1.66,0,3.32,0,5v.65H33.75Z" transform="translate(-3.03 -1.92)"/><path class="cls-1" d="M182.83,28.32l.06-1.1h2.42v8.7c0,.31,0,.62,0,.92a3.23,3.23,0,0,1-3,3.12,7.06,7.06,0,0,1-3.89-.23,2.71,2.71,0,0,1-1.84-2.41h2.53a.36.36,0,0,1,.25.17c.5.86,1.3.72,2.08.64a1.34,1.34,0,0,0,1.24-1.23,9.89,9.89,0,0,0,.1-1.65,3.26,3.26,0,0,1-3.92.9A3.65,3.65,0,0,1,176.46,33a6.59,6.59,0,0,1,.33-3.65A3.67,3.67,0,0,1,180.86,27,2.94,2.94,0,0,1,182.83,28.32Zm-3.93,3.41a10.09,10.09,0,0,0,.32,1.4,1.69,1.69,0,0,0,1.72,1.16,1.71,1.71,0,0,0,1.67-1.16,3.9,3.9,0,0,0,0-2.85,1.7,1.7,0,0,0-1.75-1.11,1.59,1.59,0,0,0-1.63,1.18A10.09,10.09,0,0,0,178.9,31.73Z" transform="translate(-3.03 -1.92)"/><path class="cls-1" d="M3,24H5.47v4.11a1.36,1.36,0,0,0,.16,0,3.54,3.54,0,0,1,6.1,1.71,6.61,6.61,0,0,1-.33,4.69A3.54,3.54,0,0,1,7,36.43a8.48,8.48,0,0,1-1.45-.91l-.09.84H3Zm6.38,7.83A14.86,14.86,0,0,0,9,30.18a1.55,1.55,0,0,0-1.41-1A1.62,1.62,0,0,0,5.89,30a3.7,3.7,0,0,0,0,3.7,1.7,1.7,0,0,0,1.69.86A1.57,1.57,0,0,0,9,33.46,13.23,13.23,0,0,0,9.41,31.84Z" transform="translate(-3.03 -1.92)"/><path class="cls-1" d="M122.94,24v4.25A3.14,3.14,0,0,1,125.55,27,3.56,3.56,0,0,1,129,29.45a6.79,6.79,0,0,1-.13,4.92,3.55,3.55,0,0,1-4.46,2.08,8.33,8.33,0,0,1-1.55-.94l-.06.84h-2.37V24Zm3.9,7.88a14.72,14.72,0,0,0-.36-1.64,1.53,1.53,0,0,0-1.42-1.06,1.74,1.74,0,0,0-1.75.74,4,4,0,0,0,0,3.76,1.81,1.81,0,0,0,1.65.84,1.59,1.59,0,0,0,1.5-1.06A12.56,12.56,0,0,0,126.84,31.9Z" transform="translate(-3.03 -1.92)"/><path class="cls-1" d="M54.89,28.38,55,27.22h2.43v9.12H54.94v-1c-.11.06-.16.07-.19.11a3.42,3.42,0,0,1-5.33-.12,6.39,6.39,0,0,1,.08-7.13C50.67,26.79,53.52,26.29,54.89,28.38ZM55,31.87a11.51,11.51,0,0,0-.37-1.54,1.7,1.7,0,0,0-1.83-1.16,1.72,1.72,0,0,0-1.64,1.29,4.38,4.38,0,0,0,0,2.75,1.85,1.85,0,0,0,3.53.08A13.57,13.57,0,0,0,55,31.87Z" transform="translate(-3.03 -1.92)"/><path class="cls-1" d="M138.57,9.07v9.1h-2.41v-1c-.11,0-.17,0-.19.09-1.1,1.68-4.09,1.77-5.57-.4a6.39,6.39,0,0,1,.36-6.88,3.42,3.42,0,0,1,5.36.21V9.07Zm-6.5,4.57a13.36,13.36,0,0,0,.3,1.48A1.67,1.67,0,0,0,134,16.37a1.79,1.79,0,0,0,1.84-1.18,4,4,0,0,0-.09-3.12A1.69,1.69,0,0,0,134.09,11a1.68,1.68,0,0,0-1.68,1.15A12.38,12.38,0,0,0,132.07,13.64Z" transform="translate(-3.03 -1.92)"/><path class="cls-1" d="M18.05,26.89c3.11,0,4.77,2.31,4.48,5.49a4.23,4.23,0,0,1-3.46,4.2,4.8,4.8,0,0,1-5.3-2,5.73,5.73,0,0,1,.49-6.24A4.64,4.64,0,0,1,18.05,26.89Zm-2.42,4.82A13.87,13.87,0,0,0,16,33.3a1.76,1.76,0,0,0,1.66,1.27,1.83,1.83,0,0,0,2-1.08,4,4,0,0,0,0-3.48,1.79,1.79,0,0,0-1.78-1A1.75,1.75,0,0,0,16,30.13,14.57,14.57,0,0,0,15.63,31.71Z" transform="translate(-3.03 -1.92)"/><path class="cls-1" d="M195.53,32.47h-6.18a1.86,1.86,0,0,0,1.11,2,2,2,0,0,0,2.28-.53c.1-.12.25-.27.38-.27.76,0,1.52,0,2.33,0a2.68,2.68,0,0,1-1.22,2.14,5,5,0,0,1-5.12.37,4.19,4.19,0,0,1-2.33-4,5.26,5.26,0,0,1,1-3.63,4.26,4.26,0,0,1,4.68-1.44,3.78,3.78,0,0,1,2.92,3.42C195.46,31.13,195.47,31.76,195.53,32.47Zm-6.13-1.69h3.41a1.6,1.6,0,0,0-1.57-1.8A1.73,1.73,0,0,0,189.4,30.78Z" transform="translate(-3.03 -1.92)"/><path class="cls-1" d="M139.36,32.45h-6.15a1.8,1.8,0,0,0,1,2,1.94,1.94,0,0,0,2.29-.45.74.74,0,0,1,.71-.34c.66,0,1.32,0,2.05,0a2.46,2.46,0,0,1-.93,1.91,4.94,4.94,0,0,1-5.17.7,4,4,0,0,1-2.54-3.88,5.58,5.58,0,0,1,.9-3.81,4.32,4.32,0,0,1,4.76-1.5,3.86,3.86,0,0,1,2.92,3.55C139.29,31.22,139.31,31.79,139.36,32.45Zm-2.68-1.67A1.67,1.67,0,0,0,135,29a1.76,1.76,0,0,0-1.78,1.8Z" transform="translate(-3.03 -1.92)"/><path class="cls-1" d="M46.52,14.31H40.39a1.81,1.81,0,0,0,1,2,1.93,1.93,0,0,0,2.31-.37.76.76,0,0,1,.75-.36c.63,0,1.26,0,1.89,0a.5.5,0,0,1,.15,0A2.89,2.89,0,0,1,44.69,18a4.63,4.63,0,0,1-6.91-4.53A7.8,7.8,0,0,1,38,12.12a3.93,3.93,0,0,1,3-3.19,4.2,4.2,0,0,1,4.45,1.21C46.41,11.31,46.49,12.77,46.52,14.31Zm-2.64-1.66c-.08-1.21-.73-1.84-1.82-1.8a1.67,1.67,0,0,0-1.63,1.8Z" transform="translate(-3.03 -1.92)"/><path class="cls-1" d="M36.49,11.86c-.79,0-1.52,0-2.26,0-.1,0-.24-.2-.29-.34a1.87,1.87,0,0,0-2.7-.48.57.57,0,0,0,.31,1c.69.23,1.41.36,2.1.57a8.73,8.73,0,0,1,1.81.67,2.66,2.66,0,0,1,.2,4.46,5.44,5.44,0,0,1-3.89.77A6.4,6.4,0,0,1,30,18a2.67,2.67,0,0,1-1.65-2.77h2.44a2,2,0,0,0,2.88,1.18.92.92,0,0,0,.5-.65.88.88,0,0,0-.52-.63c-.86-.29-1.75-.5-2.63-.74l-.5-.14c-1-.34-1.85-.86-1.94-2.06a2.83,2.83,0,0,1,1.49-2.87,5.46,5.46,0,0,1,4.49-.25,2.72,2.72,0,0,1,1.86,2.14A3.43,3.43,0,0,1,36.49,11.86Z" transform="translate(-3.03 -1.92)"/><path class="cls-1" d="M140.76,27.21h2.54c0,.21,0,.41,0,.61,0,1.78,0,3.55,0,5.33,0,.83.38,1.23,1,1.31,1,.14,1.69-.15,1.95-.9a5.13,5.13,0,0,0,.24-1.51c0-1.57,0-3.13,0-4.7a.47.47,0,0,1,.05-.14h2.48v9.13h-2.41V35.23a1.4,1.4,0,0,0-.22.16,3.37,3.37,0,0,1-3.89,1,2.55,2.55,0,0,1-1.8-2.6C140.72,31.6,140.76,29.42,140.76,27.21Z" transform="translate(-3.03 -1.92)"/><path class="cls-1" d="M69.38,33.44h2.5a2.1,2.1,0,0,0,3,1.12,1,1,0,0,0,.41-.66.78.78,0,0,0-.46-.56c-.68-.24-1.38-.4-2.08-.6-.44-.12-.89-.22-1.31-.38a2.59,2.59,0,0,1-.69-4.56,4.5,4.5,0,0,1,3.4-.86,5.92,5.92,0,0,1,1.45.29,2.85,2.85,0,0,1,2,2.78H75.14A1.65,1.65,0,0,0,72.76,29c-.24.1-.54.39-.55.61a.86.86,0,0,0,.51.63c.74.25,1.51.4,2.26.61a7.87,7.87,0,0,1,1.24.42,2.43,2.43,0,0,1,1.62,2.34,2.63,2.63,0,0,1-1.62,2.61,6.39,6.39,0,0,1-5.16,0A2.75,2.75,0,0,1,69.38,33.44Z" transform="translate(-3.03 -1.92)"/><path class="cls-1" d="M169,36.36h-2.46V27.22h2.36v1.14a1.5,1.5,0,0,0,.27-.22,3.38,3.38,0,0,1,3.94-.95,2.59,2.59,0,0,1,1.77,2.67c0,2.1,0,4.2,0,6.3a.78.78,0,0,1-.06.19h-2.51V30.76c0-1.07-.4-1.61-1.23-1.69a1.61,1.61,0,0,0-2,1.42,7.45,7.45,0,0,0-.11,1.25C169,33.26,169,34.79,169,36.36Z" transform="translate(-3.03 -1.92)"/><path class="cls-1" d="M153.72,36.36h-2.44V27.22h2.36v1.1c.1-.06.16-.07.19-.11a3.31,3.31,0,0,1,3.59-1.15,2.59,2.59,0,0,1,2.18,2.65c.05,2.19,0,4.39,0,6.63H157v-1.2c0-1.43,0-2.86,0-4.29,0-1.2-.39-1.73-1.3-1.79a1.64,1.64,0,0,0-1.94,1.63c-.09.92-.06,1.86-.07,2.8S153.72,35.39,153.72,36.36Z" transform="translate(-3.03 -1.92)"/><path class="cls-1" d="M149.08,18.18h-2.52v-3c0-.93,0-1.87,0-2.8a1.32,1.32,0,0,0-1.11-1.45,1.61,1.61,0,0,0-1.92.86,3.75,3.75,0,0,0-.26,1.28c0,1.49,0,3,0,4.46v.65h-2.47V9.09h2.35v1.14a2.32,2.32,0,0,0,.34-.3,3.54,3.54,0,0,1,4.48-.62,2.26,2.26,0,0,1,1.12,1.84C149.11,13.48,149.08,15.8,149.08,18.18Z" transform="translate(-3.03 -1.92)"/><path class="cls-1" d="M26.56,18.19H24.17l-.07-1.13a3.27,3.27,0,0,1-2.79,1.36,2.77,2.77,0,0,1-3.06-2.9c-.06-2.13,0-4.27,0-6.45h2.54c0,1.46,0,2.9,0,4.35a13.9,13.9,0,0,0,0,1.71c.1.8.41,1.1,1.08,1.2a1.58,1.58,0,0,0,1.83-.84A4.43,4.43,0,0,0,24,14.05c0-1.45,0-2.91,0-4.36V9.05h2.54Z" transform="translate(-3.03 -1.92)"/><path class="cls-1" d="M56.35,18.18H54V17.06l-.33.3a3.57,3.57,0,0,1-4.3.63,2.65,2.65,0,0,1-1.27-2.31c-.06-2.19,0-4.39,0-6.62h2.53v.59c0,1.68,0,3.36,0,5,0,1.39.89,2,2.16,1.55a1.54,1.54,0,0,0,1-1.46c.06-.76.06-1.52.06-2.29,0-1.14,0-2.28,0-3.45h2.54Z" transform="translate(-3.03 -1.92)"/><path class="cls-1" d="M65.31,36.35V35.6c0-1.7,0-3.4,0-5.09,0-.94-.47-1.37-1.23-1.45a1.59,1.59,0,0,0-1.9,1.18A4.73,4.73,0,0,0,62,31.37c0,1.63,0,3.27,0,5H59.5V27.22h2.37v1.06c.09,0,.16,0,.18-.05a3.29,3.29,0,0,1,3.58-1.18,2.54,2.54,0,0,1,2.18,2.52c.08,2.25,0,4.5,0,6.78Z" transform="translate(-3.03 -1.92)"/><path class="cls-1" d="M199.59,36.37h-2.47V27.23h2.36v1.2A3.35,3.35,0,0,1,202,27c2.21-.16,3.49,1,3.49,3.21v6.17h-2.51l0-.6c0-1.55,0-3.09,0-4.64a4.68,4.68,0,0,0,0-.74c-.11-.79-.45-1.18-1.08-1.28a1.59,1.59,0,0,0-1.92.87,4.08,4.08,0,0,0-.26,1.39c0,1.45,0,2.9,0,4.35Z" transform="translate(-3.03 -1.92)"/><path class="cls-1" d="M128.81,9c-.61,1.72-1.19,3.36-1.78,5-.44,1.24-.89,2.47-1.31,3.71-.12.34-.26.5-.64.48-.59,0-1.18,0-1.77,0a.71.71,0,0,1-.53-.34c-1-2.86-2.07-5.73-3.09-8.6a.9.9,0,0,1,0-.23c.85,0,1.68,0,2.51,0,.12,0,.3.25.34.41q.81,2.82,1.59,5.66l.17.47c.58-2,1.15-4,1.66-5.91.14-.53.35-.7.89-.66S128.1,9,128.81,9Z" transform="translate(-3.03 -1.92)"/><path class="cls-1" d="M27.87,40.07v-2C29,38,29,38,29,36.87v-9.6h2.48v10.1c0,2-.71,2.68-2.68,2.7Z" transform="translate(-3.03 -1.92)"/><path class="cls-1" d="M164.33,36.36h-2.46V27.23h2.46Z" transform="translate(-3.03 -1.92)"/><path class="cls-1" d="M26.49,36.36H24.06V27.22h2.43Z" transform="translate(-3.03 -1.92)"/><path class="cls-1" d="M26.51,23.93v2.19H24.06V23.93Z" transform="translate(-3.03 -1.92)"/><path class="cls-1" d="M161.86,23.93h2.48v2.19h-2.48Z" transform="translate(-3.03 -1.92)"/><path class="cls-1" d="M29,26.12V23.94h2.42v2.18Z" transform="translate(-3.03 -1.92)"/><path class="cls-1" d="M89.86,42.38V4.58a4.75,4.75,0,0,1,.51,0c3.19,0,6.38,0,9.57,0a9.8,9.8,0,0,1,3.7,18.73l-.35.19.92.46A9.79,9.79,0,0,1,99.7,42.38H89.86Zm1.34-1.3h8.66a6.86,6.86,0,0,0,1.19-.12,8.47,8.47,0,0,0-1.54-16.82H91.78l-.58,0Zm0-35.25V22.75l.2,0c2.92,0,5.85.05,8.77,0a8.48,8.48,0,0,0-.76-16.93H91.21Z" transform="translate(-3.03 -1.92)"/><path class="cls-1" d="M92.49,39.75V25.41h7.16a7.18,7.18,0,0,1,.28,14.36c-2.39.07-4.77,0-7.16,0Zm1.31-1.28h2.8a38.09,38.09,0,0,0,4-.13,5.82,5.82,0,0,0-.54-11.56c-2-.08-4,0-6-.05a2.07,2.07,0,0,0-.3.05Z" transform="translate(-3.03 -1.92)"/><path class="cls-1" d="M92.51,7.13h7.08a7.18,7.18,0,0,1,.68,14.33c-2.57.15-5.15,0-7.76,0Zm1.27,13a2.51,2.51,0,0,0,.32,0c2,0,3.93,0,5.89-.05a5.82,5.82,0,0,0,.58-11.56c-2.21-.21-4.46-.08-6.69-.11,0,0,0,0-.1.08Z" transform="translate(-3.03 -1.92)"/></g></svg>