<svg viewBox="0 0 34.53 33.75" xmlns="http://www.w3.org/2000/svg"><g fill="#f9537e"><circle cx="9.99" cy="13.07" r="1"/><circle cx="3.5" cy="11.56" r="1.5"/><circle cx="18.15" cy="7.96" r="1.5"/><circle cx="7.5" cy="5.56" r="1.5"/><path d="m11.74 23.48a10 10 0 0 0 -6.3-2.4l.06-2.21a12.41 12.41 0 0 1 7.67 2.93z" transform="translate(-1.2 -3.97)"/><path d="m16.35 18a10 10 0 0 1 -1.48-14l1.55 1.26a8 8 0 0 0 1.19 11.25z" transform="translate(-1.2 -3.97)"/><path d="m14.35 25.11 20.18 8.64-8.65-20.17z"/><path d="m25.46 12.59-1.22-2.84-13.71 13.72 2.83 1.21z"/></g><circle cx="7.99" cy="13.07" fill="#343790" r="1"/><circle cx="1.5" cy="11.56" fill="#343790" r="1.5"/><circle cx="16.15" cy="7.96" fill="#343790" r="1.5"/><circle cx="5.5" cy="5.56" fill="#343790" r="1.5"/><path d="m9.74 23.48a10 10 0 0 0 -6.3-2.4l.06-2.21a12.41 12.41 0 0 1 7.67 2.93z" fill="#343790" transform="translate(-1.2 -3.97)"/><path d="m14.35 18a10 10 0 0 1 -1.48-14l1.55 1.26a8 8 0 0 0 1.19 11.25z" fill="#343790" transform="translate(-1.2 -3.97)"/><path d="m12.35 25.11 20.18 8.64-8.65-20.17z" fill="#343790"/><path d="m23.46 12.59-1.22-2.84-13.71 13.72 2.83 1.21z" fill="#343790"/></svg>