<svg id="Layer_1" data-name="Layer 1" xmlns="http://www.w3.org/2000/svg" viewBox="0 0 34.53 33.75"><defs><style>.cls-1{fill:#f9537e;}.cls-2{fill:#343790;}</style></defs><title>nav-party-icon-active</title><circle class="cls-1" cx="9.99" cy="13.07" r="1"/><circle class="cls-1" cx="3.5" cy="11.56" r="1.5"/><circle class="cls-1" cx="18.15" cy="7.96" r="1.5"/><circle class="cls-1" cx="7.5" cy="5.56" r="1.5"/><path class="cls-1" d="M11.74,23.48a10,10,0,0,0-6.3-2.4l.06-2.21a12.41,12.41,0,0,1,7.67,2.93Z" transform="translate(-1.2 -3.97)"/><path class="cls-1" d="M16.35,18A10,10,0,0,1,14.87,4l1.55,1.26a8,8,0,0,0,1.19,11.25Z" transform="translate(-1.2 -3.97)"/><polygon class="cls-1" points="14.35 25.11 34.53 33.75 25.88 13.58 14.35 25.11"/><polygon class="cls-1" points="25.46 12.59 24.24 9.75 10.53 23.47 13.36 24.68 25.46 12.59"/><circle class="cls-2" cx="7.99" cy="13.07" r="1"/><circle class="cls-2" cx="1.5" cy="11.56" r="1.5"/><circle class="cls-2" cx="16.15" cy="7.96" r="1.5"/><circle class="cls-2" cx="5.5" cy="5.56" r="1.5"/><path class="cls-2" d="M9.74,23.48a10,10,0,0,0-6.3-2.4l.06-2.21a12.41,12.41,0,0,1,7.67,2.93Z" transform="translate(-1.2 -3.97)"/><path class="cls-2" d="M14.35,18A10,10,0,0,1,12.87,4l1.55,1.26a8,8,0,0,0,1.19,11.25Z" transform="translate(-1.2 -3.97)"/><polygon class="cls-2" points="12.35 25.11 32.53 33.75 23.88 13.58 12.35 25.11"/><polygon class="cls-2" points="23.46 12.59 22.24 9.75 8.53 23.47 11.36 24.68 23.46 12.59"/></svg>