<svg id="Layer_1" data-name="Layer 1" xmlns="http://www.w3.org/2000/svg" viewBox="0 0 35.29 33.29"><defs><style>.cls-1{fill:#f9537e;}.cls-2{fill:#343790;}</style></defs><title>nav-subs-icon-active</title><polygon class="cls-1" points="31.36 11.36 23.86 18.86 20.86 21.86 13.36 29.36 16.36 32.36 23.59 25.13 30.43 33.29 35.29 28.43 27.13 21.59 34.36 14.36 31.36 11.36"/><polygon class="cls-1" points="23.62 6.94 17.02 2.98 14.79 5.21 17.82 9.43 13.61 6.39 5.16 14.85 8.04 20.62 3.71 16.29 2 18 12.33 28.33 30.33 10.33 20 0 19.4 0.6 23.62 6.94"/><polygon class="cls-2" points="29.36 11.36 21.86 18.86 18.86 21.86 11.36 29.36 14.36 32.36 21.59 25.13 28.43 33.29 33.29 28.43 25.13 21.59 32.36 14.36 29.36 11.36"/><polygon class="cls-2" points="21.62 6.94 15.02 2.98 12.79 5.21 15.82 9.43 11.61 6.39 3.15 14.85 6.04 20.62 1.71 16.29 0 18 10.33 28.33 28.33 10.33 18 0 17.4 0.6 21.62 6.94"/></svg>