<svg id="Layer_1" data-name="Layer 1" xmlns="http://www.w3.org/2000/svg" viewBox="0 0 87.2 81.97"><defs><style>.cls-1{fill:#eeeded;}</style></defs><title>social-icons</title><path class="cls-1" d="M49.25,14a18.57,18.57,0,0,1-5.31,1.46A9.3,9.3,0,0,0,48,10.38a19,19,0,0,1-5.87,2.24,9.25,9.25,0,0,0-15.75,8.43,26.25,26.25,0,0,1-19-9.66A9.14,9.14,0,0,0,6.08,16a9.24,9.24,0,0,0,4.11,7.69A9.27,9.27,0,0,1,6,22.57v.11a9.26,9.26,0,0,0,7.41,9.07,9.25,9.25,0,0,1-2.43.32,9,9,0,0,1-1.74-.17,9.24,9.24,0,0,0,8.63,6.42,18.53,18.53,0,0,1-11.48,4,20,20,0,0,1-2.2-.13A26.11,26.11,0,0,0,18.36,46.3c17,0,26.29-14.08,26.29-26.3l0-1.19A18.62,18.62,0,0,0,49.25,14Z" transform="translate(-4.19 -8.06)"/><path id="Facebook" class="cls-1" d="M76.76,15.8v5.51h-4v6.74h4v20h8.29v-20h5.56s.52-3.23.77-6.76h-6.3V16.68a2,2,0,0,1,1.79-1.61h4.52v-7H85.25C76.55,8.06,76.76,14.8,76.76,15.8Z" transform="translate(-4.19 -8.06)"/><path class="cls-1" d="M21.59,64.55H17.92a.72.72,0,0,0,0,1.44h2.86A2.94,2.94,0,1,1,20,63.18a.71.71,0,0,0,1,0,.72.72,0,0,0,0-1,4.35,4.35,0,0,0-3.1-1.28,4.39,4.39,0,1,0,4.39,4.39A.72.72,0,0,0,21.59,64.55Z" transform="translate(-4.19 -8.06)"/><path class="cls-1" d="M37.05,58.59a4.33,4.33,0,1,0,4.33,4.33A4.33,4.33,0,0,0,37.05,58.59Zm0,7.22a2.89,2.89,0,1,1,2.89-2.89A2.89,2.89,0,0,1,37.05,65.81Z" transform="translate(-4.19 -8.06)"/><path class="cls-1" d="M37.05,54a8.93,8.93,0,0,0-7.52,4.1h-16A3.48,3.48,0,0,0,10,61.55v25A3.48,3.48,0,0,0,13.48,90h25A3.48,3.48,0,0,0,42,86.55V71a17.5,17.5,0,0,1,1.42-1.72A9,9,0,0,0,37.05,54ZM11.44,61.55a2,2,0,0,1,2-2H28.77A9,9,0,0,0,29.05,67L11.44,84.8Zm2,27a2,2,0,0,1-1.93-1.76L29.83,68.22a8.65,8.65,0,0,0,.89,1c.29.31.56.62.82.94Zm19-17.23a26.16,26.16,0,0,1,3.58,8l-5.84-5.76Zm-17,17.23,10.66-10.8L37,88.59Zm25.11-2a2,2,0,0,1-1.53,2L27.08,76.77l2.06-2.09L40.52,85.91Zm0-2.67h0l-2.79-2.75,0-.13a26.9,26.9,0,0,1,2.76-7.75V83.88Zm1.83-15.63,0,0a24.65,24.65,0,0,0-5.26,9.55,24.56,24.56,0,0,0-5.27-9.55l0,0a7.51,7.51,0,1,1,10.6,0Z" transform="translate(-4.19 -8.06)"/></svg>