<svg id="Layer_1" data-name="Layer 1" xmlns="http://www.w3.org/2000/svg" viewBox="0 0 172.25 24.5">
  <defs>
    <style>
      .cls-1 {
        fill: #eeeded;
      }

      .cls-2 {
        fill: #dadada;
      }
    </style>
  </defs>
  <title>tagline</title>
  <rect class="cls-1" width="172.25" height="24.5"/>
  <g>
    <polygon class="cls-2" points="40.78 18.61 42.33 18.61 42.33 23.65 43.6 23.65 43.6 18.61 45.14 18.61 45.14 17.35 40.78 17.35 40.78 18.61"/>
    <polygon class="cls-2" points="168.42 12.2 169.52 12.2 172.23 4.3 171.12 4.3 168.42 12.2"/>
    <path class="cls-2" d="M39.42,20.79a2,2,0,0,0,.4-1.2v-.17A1.81,1.81,0,0,0,39.21,18a2.34,2.34,0,0,0-1.65-.64H35.51v6.3h1.26V20.86l1.81,2.79h1.55l-1.46-2.28A1.44,1.44,0,0,0,39.42,20.79Zm-1.74-.44h-.91V18.61h.71a1.16,1.16,0,0,1,.78.25.82.82,0,0,1,.25.6A.87.87,0,0,1,37.68,20.35Z" transform="translate(0 0)"/>
    <path class="cls-2" d="M36.71,9.53l-1.26.27a2,2,0,0,0,2,1.65,2,2,0,0,0,2-1.92A1.87,1.87,0,0,0,38,7.82c-.44-.13-1.16-.28-1.16-.85a.64.64,0,0,1,1.28,0l1.26-.26A1.92,1.92,0,0,0,35.52,7,2,2,0,0,0,37,8.71c.43.15,1.21.24,1.21.81a.74.74,0,0,1-.74.64h0A.73.73,0,0,1,36.71,9.53Z" transform="translate(0 0)"/>
    <path class="cls-2" d="M34,8.54a2,2,0,0,0,.4-1.2V7.17a1.78,1.78,0,0,0-.61-1.43,2.34,2.34,0,0,0-1.65-.64H30.09v6.3h1.27V8.61l1.81,2.79h1.54L33.25,9.12A1.4,1.4,0,0,0,34,8.54ZM32.26,8.1h-.91V6.36h.72a1.2,1.2,0,0,1,.78.25.86.86,0,0,1,.25.6A.87.87,0,0,1,32.26,8.1Z" transform="translate(0 0)"/>
    <polygon class="cls-2" points="45.79 4.3 43.08 12.2 44.19 12.2 46.9 4.3 45.79 4.3"/>
    <path class="cls-2" d="M61.4,6A3.2,3.2,0,0,0,56,8.26a3,3,0,0,0,.94,2.25,3.2,3.2,0,0,0,4.51,0,3,3,0,0,0,.94-2.25A3.08,3.08,0,0,0,61.4,6ZM60.5,9.6a1.84,1.84,0,0,1-1.35.56,1.91,1.91,0,0,1-1.92-1.91,1.91,1.91,0,0,1,1.92-1.92,1.91,1.91,0,0,1,1.91,1.92A1.84,1.84,0,0,1,60.5,9.6Z" transform="translate(0 0)"/>
    <polygon class="cls-2" points="5.49 5.07 3.61 10.05 6.86 10.05 6.86 11.4 8.12 11.4 8.12 10.05 8.75 10.05 8.75 8.79 8.12 8.79 8.12 6.34 6.86 6.34 6.86 8.79 5.51 8.79 6.86 5.08 5.49 5.07"/>
    <path class="cls-2" d="M146.15,23.65h1.37l.42-1h2.16l.42,1h1.37L149,17.22Zm3.45-2.07h-1.16l.58-1.34Z" transform="translate(0 0)"/>
    <polygon class="cls-2" points="53.73 11.4 53.73 8.7 55.68 5.1 54.24 5.1 53.1 7.29 51.95 5.1 50.52 5.1 52.47 8.7 52.47 11.4 53.73 11.4"/>
    <path class="cls-2" d="M48.92,20.51a3.19,3.19,0,0,0,3.19,3.18,3.07,3.07,0,0,0,2.26-.93,3,3,0,0,0,.94-2.25,3.2,3.2,0,1,0-6.39,0Zm1.84-1.37a1.84,1.84,0,0,1,1.35-.56A1.91,1.91,0,0,1,54,20.5a1.91,1.91,0,0,1-1.92,1.91A1.91,1.91,0,0,1,50.2,20.5,1.84,1.84,0,0,1,50.76,19.14Z" transform="translate(0 0)"/>
    <polygon class="cls-2" points="2.45 17.35 1.02 17.35 2.97 20.95 2.97 23.65 4.23 23.65 4.23 20.95 6.18 17.35 4.75 17.35 3.6 19.54 2.45 17.35"/>
    <path class="cls-2" d="M144.65,11.4H146l.42-1h2.16l.43,1h1.37L147.52,5Zm3.45-2.07h-1.16L147.53,8Z" transform="translate(0 0)"/>
    <polygon class="cls-2" points="135.35 17.35 137.3 20.95 137.3 23.65 138.56 23.65 138.56 20.95 140.51 17.35 139.07 17.35 137.93 19.54 136.78 17.35 135.35 17.35"/>
    <path class="cls-2" d="M23.37,11.4h1.37l.42-1h2.16l.42,1h1.37L26.24,5Zm3.45-2.07H25.66L26.24,8Z" transform="translate(0 0)"/>
    <path class="cls-2" d="M30.15,23.65l.43-1h2.15l.43,1h1.37l-2.87-6.43-2.88,6.43Zm1.51-3.41.57,1.34H31.08Z" transform="translate(0 0)"/>
    <polygon class="cls-2" points="168.57 16.55 165.86 24.45 166.97 24.45 169.68 16.55 168.57 16.55"/>
    <polygon class="cls-2" points="142.21 8.08 141.05 5.1 139.88 8.08 138.71 5.1 137.35 5.1 139.88 11.54 141.03 8.41 142.21 11.54 144.74 5.1 143.37 5.1 142.21 8.08"/>
    <path class="cls-2" d="M17.74,21.16a1.3,1.3,0,0,1-1.27,1.27,1.28,1.28,0,0,1-1.27-1.27V17.35H13.92v3.82a2.45,2.45,0,0,0,.75,1.8,2.56,2.56,0,0,0,3.6,0,2.45,2.45,0,0,0,.75-1.8V17.35H17.74Z" transform="translate(0 0)"/>
    <polygon class="cls-2" points="145.28 18.6 145.28 17.34 141.49 17.34 141.49 23.66 145.28 23.66 145.28 22.4 142.75 22.4 142.75 21.13 144.65 21.13 144.65 19.87 142.75 19.87 142.75 18.6 145.28 18.6"/>
    <polygon class="cls-2" points="15.15 7.29 14 5.1 12.57 5.1 14.52 8.7 14.52 11.4 15.78 11.4 15.78 8.7 17.73 5.1 16.29 5.1 15.15 7.29"/>
    <path class="cls-2" d="M20.39,17.35v6.3h1.27V20.86l1.81,2.79H25l-1.46-2.28a1.44,1.44,0,0,0,.75-.58,2,2,0,0,0,.4-1.2v-.17A1.81,1.81,0,0,0,24.09,18a2.34,2.34,0,0,0-1.65-.64Zm3,2.11a.88.88,0,0,1-.84.89h-.91V18.61h.71a1.2,1.2,0,0,1,.79.25A.86.86,0,0,1,23.4,19.46Z" transform="translate(0 0)"/>
    <path class="cls-2" d="M9.65,17.3a3.21,3.21,0,0,0-3.2,3.21,3,3,0,0,0,.94,2.25,3.07,3.07,0,0,0,2.26.93,3.06,3.06,0,0,0,2.25-.93,3,3,0,0,0,.94-2.25A3.21,3.21,0,0,0,9.65,17.3ZM11,21.85a1.84,1.84,0,0,1-1.35.56A1.91,1.91,0,0,1,7.73,20.5a1.91,1.91,0,0,1,1.92-1.92,1.91,1.91,0,0,1,1.91,1.92A1.84,1.84,0,0,1,11,21.85Z" transform="translate(0 0)"/>
    <polygon class="cls-2" points="118.92 24.45 120.02 24.45 122.73 16.55 121.62 16.55 118.92 24.45"/>
    <polygon class="cls-2" points="18.71 11.41 22.5 11.41 22.5 10.15 19.97 10.15 19.97 8.88 21.87 8.88 21.87 7.62 19.97 7.62 19.97 6.35 22.5 6.35 22.5 5.09 18.71 5.09 18.71 11.41"/>
    <polygon class="cls-2" points="151.38 5.1 151.38 11.4 155.17 11.4 155.17 10.14 152.64 10.14 152.64 5.1 151.38 5.1"/>
    <path class="cls-2" d="M95.15,23.65h1.37l.42-1H99.1l.43,1h1.37L98,17.22Zm3.45-2.07H97.44L98,20.24Z" transform="translate(0 0)"/>
    <polygon class="cls-2" points="106.65 17.35 106.65 23.65 110.45 23.65 110.45 22.39 107.92 22.39 107.92 17.35 106.65 17.35"/>
    <polygon class="cls-2" points="111.01 5.09 109.74 5.09 109.74 8.58 105.94 4.97 105.94 11.41 107.21 11.41 107.21 7.91 111.01 11.53 111.01 5.09"/>
    <polygon class="cls-2" points="156.15 5.1 156.15 11.4 159.95 11.4 159.95 10.14 157.42 10.14 157.42 5.1 156.15 5.1"/>
    <path class="cls-2" d="M101.61,5.05a3.21,3.21,0,0,0-3.19,3.21,3.19,3.19,0,0,0,3.19,3.18,3.07,3.07,0,0,0,2.26-.93,3,3,0,0,0,.94-2.25,3.21,3.21,0,0,0-3.2-3.21ZM103,9.6a1.84,1.84,0,0,1-1.36.56A1.91,1.91,0,0,1,99.7,8.25a1.91,1.91,0,0,1,1.91-1.92,1.91,1.91,0,0,1,1.92,1.92A1.84,1.84,0,0,1,103,9.6Z" transform="translate(0 0)"/>
    <polygon class="cls-2" points="101.88 17.35 101.88 23.65 105.67 23.65 105.67 22.39 103.14 22.39 103.14 17.35 101.88 17.35"/>
    <path class="cls-2" d="M112.54,21.78l-1.25.27a2,2,0,0,0,4-.27,1.87,1.87,0,0,0-1.5-1.71c-.44-.13-1.15-.28-1.15-.85a.64.64,0,1,1,1.27,0l1.26-.26a1.91,1.91,0,1,0-2.38,2c.44.15,1.21.24,1.21.81a.74.74,0,0,1-.74.64h0A.73.73,0,0,1,112.54,21.78Z" transform="translate(0 0)"/>
    <path class="cls-2" d="M132.87,8.54a2.1,2.1,0,0,0,.4-1.2V7.17a1.81,1.81,0,0,0-.61-1.43A2.34,2.34,0,0,0,131,5.1H129v6.3h1.26V8.61L132,11.4h1.55l-1.47-2.28A1.43,1.43,0,0,0,132.87,8.54Zm-1.74-.44h-.91V6.36h.71a1.16,1.16,0,0,1,.78.25.82.82,0,0,1,.25.6A.87.87,0,0,1,131.13,8.1Z" transform="translate(0 0)"/>
    <polygon class="cls-2" points="126.39 22.3 129.64 22.3 129.64 23.65 130.9 23.65 130.9 22.3 131.53 22.3 131.53 21.04 130.9 21.04 130.9 18.59 129.64 18.59 129.64 21.04 128.29 21.04 129.64 17.33 128.27 17.32 126.39 22.3"/>
    <path class="cls-2" d="M122.49,5.1V8.92a2.55,2.55,0,1,0,5.09,0V5.1h-1.27V8.91a1.28,1.28,0,0,1-2.55,0V5.1Z" transform="translate(0 0)"/>
    <path class="cls-2" d="M118.21,5.05A3.19,3.19,0,0,0,115,8.26a3.06,3.06,0,0,0,.93,2.25,3.21,3.21,0,0,0,4.52,0,3,3,0,0,0,.94-2.25A3.08,3.08,0,0,0,120.47,6,3.11,3.11,0,0,0,118.21,5.05Zm1.35,4.55a1.92,1.92,0,0,1-3.27-1.35,1.92,1.92,0,0,1,3.84,0A1.81,1.81,0,0,1,119.56,9.6Z" transform="translate(0 0)"/>
    <path class="cls-2" d="M158.3,19.21A2,2,0,0,0,159.75,21c.43.15,1.21.24,1.21.81a.74.74,0,0,1-.74.64h0a.73.73,0,0,1-.74-.64l-1.26.27a2,2,0,0,0,2,1.65,2,2,0,0,0,2-1.92,1.87,1.87,0,0,0-1.49-1.71c-.44-.13-1.16-.28-1.16-.85a.64.64,0,0,1,1.28,0l1.26-.26a1.92,1.92,0,0,0-3.83.26Z" transform="translate(0 0)"/>
    <path class="cls-2" d="M73,17.35v3.82a2.55,2.55,0,1,0,5.09,0V17.35H76.81v3.81a1.28,1.28,0,0,1-2.55,0V17.35Z" transform="translate(0 0)"/>
    <path class="cls-2" d="M152.87,17.35v6.3h1.27V20.86L156,23.65h1.54L156,21.37a1.4,1.4,0,0,0,.75-.58,2,2,0,0,0,.4-1.2v-.17a1.78,1.78,0,0,0-.61-1.43,2.34,2.34,0,0,0-1.65-.64Zm3,2.11a.87.87,0,0,1-.84.89h-.91V18.61h.72a1.2,1.2,0,0,1,.78.25A.86.86,0,0,1,155.88,19.46Z" transform="translate(0 0)"/>
    <path class="cls-2" d="M83.37,20.79a2.1,2.1,0,0,0,.4-1.2v-.17A1.81,1.81,0,0,0,83.16,18a2.34,2.34,0,0,0-1.65-.64H79.45v6.3h1.26V20.86l1.81,2.79h1.55l-1.47-2.28A1.43,1.43,0,0,0,83.37,20.79Zm-1.74-.44h-.91V18.61h.71a1.16,1.16,0,0,1,.78.25.82.82,0,0,1,.25.6A.87.87,0,0,1,81.63,20.35Z" transform="translate(0 0)"/>
    <polygon class="cls-2" points="87.85 17.35 90.38 23.79 91.53 20.66 92.71 23.79 95.24 17.35 93.87 17.35 92.71 20.33 91.55 17.35 90.38 20.33 89.21 17.35 87.85 17.35"/>
    <path class="cls-2" d="M63.42,5.1V8.92a2.45,2.45,0,0,0,.75,1.8,2.56,2.56,0,0,0,3.6,0,2.45,2.45,0,0,0,.75-1.8V5.1H67.24V8.91A1.3,1.3,0,0,1,66,10.18,1.28,1.28,0,0,1,64.7,8.91V5.1Z" transform="translate(0 0)"/>
    <path class="cls-2" d="M73.8,8.54a2,2,0,0,0,.4-1.2V7.17a1.81,1.81,0,0,0-.61-1.43,2.34,2.34,0,0,0-1.65-.64h-2v6.3h1.27V8.61L73,11.4h1.54L73.05,9.12A1.44,1.44,0,0,0,73.8,8.54ZM72.06,8.1h-.91V6.36h.71a1.2,1.2,0,0,1,.79.25.86.86,0,0,1,.25.6A.88.88,0,0,1,72.06,8.1Z" transform="translate(0 0)"/>
    <path class="cls-2" d="M66.45,18.24a3.13,3.13,0,0,0-.93,2.27,3.06,3.06,0,0,0,.93,2.25,3.21,3.21,0,0,0,4.52,0,3,3,0,0,0,.94-2.25A3.08,3.08,0,0,0,71,18.24a3.19,3.19,0,0,0-4.52,0Zm4.18,2.26a1.92,1.92,0,0,1-3.84,0,1.92,1.92,0,0,1,3.84,0Z" transform="translate(0 0)"/>
    <polygon class="cls-2" points="60.24 20.83 56.44 17.22 56.44 23.66 57.71 23.66 57.71 20.16 61.51 23.78 61.51 17.34 60.24 17.34 60.24 20.83"/>
    <path class="cls-2" d="M88.92,8.54a2,2,0,0,0,.4-1.2V7.17a1.81,1.81,0,0,0-.61-1.43,2.34,2.34,0,0,0-1.65-.64H85v6.3h1.26V8.61l1.81,2.79h1.55L88.17,9.12A1.44,1.44,0,0,0,88.92,8.54ZM87.18,8.1h-.91V6.36H87a1.16,1.16,0,0,1,.78.25.82.82,0,0,1,.25.6A.87.87,0,0,1,87.18,8.1Z" transform="translate(0 0)"/>
    <polygon class="cls-2" points="93.1 11.4 93.1 6.36 94.64 6.36 94.64 5.1 90.28 5.1 90.28 6.36 91.83 6.36 91.83 11.4 93.1 11.4"/>
    <path class="cls-2" d="M162,9.53l-1.25.27a2,2,0,0,0,4-.27,1.87,1.87,0,0,0-1.5-1.71c-.44-.13-1.15-.28-1.15-.85a.64.64,0,1,1,1.27,0l1.26-.26a1.92,1.92,0,0,0-3.82.26,1.94,1.94,0,0,0,1.44,1.75c.44.15,1.21.24,1.21.81a.74.74,0,0,1-.74.64h0A.73.73,0,0,1,162,9.53Z" transform="translate(0 0)"/>
    <path class="cls-2" d="M78.28,11.4h1.37l.43-1h2.15l.43,1H84L81.16,5Zm3.45-2.07H80.58L81.16,8Z" transform="translate(0 0)"/>
  </g>
</svg>
