<svg viewBox="0 0 304.44 91.69" xmlns="http://www.w3.org/2000/svg"><g fill="#d8d8d8" transform="translate(-1.78 -.15)"><path d="m41.76.15 9.56 86.15-11.21 1.25-1.45-12.83-18.46 1.73-6 14-12.42 1.4zm-4.76 59.5-1.89-18.1-7.98 18.82z"/><path d="m67.16 2.06 15.58.1c5.15 0 8.72 3.42 10.73 8.16s3 9.23 1.61 18l-.31 2.08a46.57 46.57 0 0 1 -5.2 15.39c-2.2 4.05-3.73 5.84-6.63 7.83l6.22 28.43-11.37 1.29-8.06-35.34-5.73 36.88-10 1.12zm18.4 27.08a14.76 14.76 0 0 0 -.63-7.72 5.47 5.47 0 0 0 -5.27-3.1l-5.37.09-3.52 22.74 3.71-.15 3.17-.15c3.43-.17 6.96-5.53 7.91-11.71z"/><path d="m130.11 2.44-2.19 15-10.12.18-9.21 62.24-8.77 1 9.42-63.07-10.79.21 2.4-15.73z"/><path d="m140.37 2.5 3.4 25.55 10.54-25.47h8.38l-17.45 41.88-4.53 31.83-7.88.88 4.66-32.24-6.11-42.48z"/><path d="m173.75 51.67 6.71-48.93 11.79.07c3.18 0 5.54 2.33 7.12 6.91s1.94 10.1 1.08 16.6a43.08 43.08 0 0 1 -5.55 16.84c-2.88 4.8-6 7.34-9.15 7.59l-5.07.39-2.86 21-7 .78zm16.65-35.3-5 .09c-.93 6.93-1.89 13.87-2.83 20.83l5.05-.22c2.72-.15 5.6-5 6.35-10.53s-.87-10.22-3.57-10.17z"/><path d="m216.88 1.63 5 65.58-6.48.72-.76-9.77-10.55 1-3.49 10.43-7 .78zm-3.13 45.07-1-13.73-4.65 14.15z"/><path d="m231.6 3.05 9.16.05c3.06 0 5.16 2.63 6.32 6.29s1.71 7.13.85 13.91l-.19 1.6a43.26 43.26 0 0 1 -3.19 11.84c-1.33 3.1-2.25 4.47-4 6l3.52 22-6.74.75-4.52-27.26-3.59 28.17-5.82.65zm10.67 20.82a14.67 14.67 0 0 0 -.32-5.94 3.23 3.23 0 0 0 -3.1-2.41l-3.16.05-2.21 17.43 2.18-.11 1.86-.1c2.03-.07 4.15-4.17 4.75-8.92z"/><path d="m269.22 3.27-1.42 11.73-6.15.11-5.93 48.3-5.27.59 6-48.8-6.47.11 1.53-12.15z"/><path d="m270.46 3.28h4.89l-7.08 58.72-5 .56z"/><path d="m293.21 3.28-1.33 11.24-9.18.16-1.39 11.57 7-.28-1.33 11.38-7 .46-1.39 11.67 9.32-.83-1.36 11.35-14.2 1.59 7-58.44z"/><path d="m296.12 48c1.22-.1 2.86-2.81 3.21-5.87.59-5.06-2-5.57-3.37-6.83-2.43-2.16-4.18-7.66-3.28-15.33 1.11-9.46 5-17 8.68-17 3.29 0 5.28 6.25 4.79 14.33l-4.53 2.42c.34-3-.36-5.55-1.54-5.53s-2.51 2.62-2.87 5.69c-.58 5 1.75 6.25 3.13 7.32 2.49 1.89 4.26 7 3.37 14.67-1.06 9.29-5.2 17.16-8.88 17.57-3.45.39-5.86-5.71-5.38-14.11l4.76-2.73c-.36 3.13.68 5.56 1.93 5.45z"/></g></svg>