<svg viewBox="0 0 216.55 136.8" xmlns="http://www.w3.org/2000/svg"><path d="M66.02 56.55v6H53.93v6.07H63v6h-9.07v12.16h-6V56.55zm28.57 4.36a15.24 15.24 0 0 1-10.78 26 14.88 14.88 0 0 1-10.79-4.36 15.263 15.263 0 1 1 21.57-21.6zm-17.26 4.3a9.168 9.168 0 0 0 12.93 13 9.168 9.168 0 1 0-12.93-13zm26.96-8.55h9.81a11 11 0 0 1 7.88 3.06 8.48 8.48 0 0 1 2.91 6.83v.78a9.72 9.72 0 0 1-1.9 5.73 6.86 6.86 0 0 1-3.61 2.78l7 10.9h-7.39l-8.64-13.3v13.3h-6zm14.37 10.08a4.07 4.07 0 0 0-1.2-2.9 5.63 5.63 0 0 0-3.73-1.19h-3.4v8.3h4.34a4.13 4.13 0 0 0 3.99-4.21zm46.62-10.08v6h-7.39v24.08h-6.07V62.65h-7.41v-6zm10.48 0v12h10.06v-12h6v30.08h-6v-12h-10.06v12h-6V56.66zm40.78-.11v6h-12.1v6.07h9.1v6h-9.07v6.07h12.07v6h-18.13V56.55zM.08 122.65v-21.86h11a10.54 10.54 0 0 1 7.75 3.19 10.54 10.54 0 0 1 3.24 7.76 10.34 10.34 0 0 1-3.24 7.71 10.63 10.63 0 0 1-7.75 3.2H6.36v9.37H.08zm11-15.64H6.36v9.42h4.69a4.72 4.72 0 0 0 0-9.43zm34.46-6.3v6.26h-12.6v6.3h9.42v6.28h-9.42v6.29h12.6v6.24H26.66v-31.37zm44.31 26.63v-21.86h11a11 11 0 0 1 11 10.95 10.3 10.3 0 0 1-3.23 7.71 10.65 10.65 0 0 1-7.75 3.2h-4.74v9.38h-6.28zm11-15.64h-4.72v9.42h4.69a4.72 4.72 0 0 0 0-9.44zm21.86-6.22v25h12.55v6.24h-18.83v-31.24zm36-.08v6.26h-12.55v6.3h9.38v6.26h-9.42v6.33h12.55v6.25h-18.79v-31.4zm-76.92 4.4a15.2 15.2 0 0 0-10-4.63h-2l-5.09-4.62h-.07a15.85 15.85 0 0 0-.12 31.7l5.28 4.57h2a15.81 15.81 0 0 0 10-27zm-4.5 17.91a9.24 9.24 0 0 1-5.55 2.7h-2l-5.09-4.52h-.07a9.49 9.49 0 0 1-9.51-9.49 9.26 9.26 0 0 1 2.79-6.73 9 9 0 0 1 6.47-2.78l5.46 4.66h2a9.09 9.09 0 0 1 5.55 2.71 9.21 9.21 0 0 1 2.81 6.73 9.11 9.11 0 0 1-2.86 6.72zM16.1 13.1a10.83 10.83 0 0 1 2.44 1.59 9.86 9.86 0 0 1 0 13.86 9.3 9.3 0 0 1-6.9 2.91H0V.23h8.72a8.42 8.42 0 0 1 6.2 2.6 8.17 8.17 0 0 1 2.48 6 9.93 9.93 0 0 1-1.3 4.27zM8.72 6.34H6.26v5.71c.56 0 1.34-.08 2.34-.15a3 3 0 0 0 2.76-2.87 2.69 2.69 0 0 0-2.64-2.69zm6.51 15.29a3.9 3.9 0 0 0-3.62-3.84c-1.86-.1-3.47 0-5.35 0v7.56h5.35a3.66 3.66 0 0 0 3.62-3.72zM66.32 4.92h6.27v31.24h-6.27zm23.35 18.99v-6.28l-.13-12.71h6.28l.13 12.63v6.4a12 12 0 0 1-3.7 8.9 12.38 12.38 0 0 1-8.71 3.64h-.21a12.16 12.16 0 0 1-7-2.17l3.18-5.5a5.66 5.66 0 0 0 3.87 1.39h.14a6.32 6.32 0 0 0 6.15-6.3zm27.05 1.26l15.29-21v32h-6.28V23.22l-9 12.44-9-12.44v12.94h-6.28v-32zm34.14-20.89l14.26 31.88h-6.8l-2.11-4.75h-10.67l-2.11 4.75h-6.78zm2.87 21.59l-2.85-6.61-2.89 6.61zm33.32-3.68V4.84h6.3v32l-18.81-17.98V36.2h-6.28V4.26zm19.28 7.82c1.73 0 3.65-1.44 3.65-3.17 0-2.85-3.83-3.25-6-4-3.81-1.3-7.17-4.43-7.17-8.68a9.53 9.53 0 0 1 19-1.32l-6.27 1.32a3.17 3.17 0 0 0-6.34 0c0 2.81 3.56 3.56 5.73 4.21 3.94 1.13 7.42 4.14 7.42 8.49 0 5.26-4.73 9.52-10 9.52a10 10 0 0 1-9.91-8.2l6.24-1.32c0 1.74 1.89 3.16 3.66 3.16zM57.66 9.28a15.16 15.16 0 0 0-10-4.63h-2L40.54.03a15.23 15.23 0 0 0-10.72 4.62 15.39 15.39 0 0 0-4.65 11.22 15.76 15.76 0 0 0 15.14 15.77l5.35 4.64h2a15.84 15.84 0 0 0 14.67-15.73 15.26 15.26 0 0 0-4.67-11.27zm-4.49 17.9a9.2 9.2 0 0 1-5.55 2.71h-2l-5.08-4.55a9.47 9.47 0 0 1-9-9.51 9.22 9.22 0 0 1 2.79-6.72 9 9 0 0 1 6-2.75l5.4 4.68h2a9.57 9.57 0 0 1 8.36 9.45 9.08 9.08 0 0 1-2.92 6.69z" fill="#323392"/></svg>