<svg viewBox="0 0 219.6 135.7" xmlns="http://www.w3.org/2000/svg"><ellipse cx="12.76" cy="12.65" fill="none" rx="10.31" ry="10.2" stroke="#323392" stroke-miterlimit="10" stroke-width="4.9"/><path d="m19.93 19.16 8.43 7.66" fill="none" stroke="#323392" stroke-miterlimit="10" stroke-width="4.9"/><path d="m48.22 27.13 6.84-5.37.08-8.74 10-13h-27l10 13z" fill="#323392"/><g transform="translate(-1.03 .02)"><path d="m90.4 2.42-5.65 17.88h-3.75l4.47-14.39h-7.25v-3.49z" fill="#323392"/><path d="m101.74.14-7.66 22.35h-3.08l7.61-22.35z" fill="#323392"/><path d="m82.89 22.68a5.94 5.94 0 0 1 5.11 2.7 10.51 10.51 0 0 1 1.85 6.3 10.55 10.55 0 0 1 -1.85 6.32 6 6 0 0 1 -5.09 2.68c-4.4 0-6.94-4.21-6.94-9s2.54-9 6.92-9zm0 3.61a2.6 2.6 0 0 0 -2.19 1.16 7.19 7.19 0 0 0 -1.17 4.23 7.1 7.1 0 0 0 1.17 4.23 2.66 2.66 0 0 0 4.39 0 7.13 7.13 0 0 0 1.16-4.23 7.19 7.19 0 0 0 -1.16-4.23 2.6 2.6 0 0 0 -2.21-1.16z" fill="#323392"/><path d="m100.73 22.81-3.09 5.38a6.3 6.3 0 0 1 4.13 2 6.22 6.22 0 0 1 -.15 8.68 6.08 6.08 0 0 1 -4.43 1.81 6.23 6.23 0 0 1 -6.26-6.23 6.38 6.38 0 0 1 .77-3c.09-.17.25-.49.33-.61l4.63-8zm-.81 11.61a2.73 2.73 0 0 0 -2.7-2.7 2.69 2.69 0 1 0 2.71 2.69z" fill="#323392"/><path d="m92.4 97.42-5.65 17.88h-3.75l4.48-14.39h-7.26v-3.49z" fill="#f9537e"/><path d="m103.74 95.14-7.66 22.35h-3.08l7.66-22.35z" fill="#f9537e"/><path d="m84.89 117.68a5.94 5.94 0 0 1 5.09 2.7 11.69 11.69 0 0 1 .02 12.62 6 6 0 0 1 -5.09 2.68c-4.4 0-6.94-4.21-6.94-9s2.54-9 6.92-9zm0 3.61a2.6 2.6 0 0 0 -2.19 1.16 7.19 7.19 0 0 0 -1.17 4.23 7.1 7.1 0 0 0 1.17 4.23 2.66 2.66 0 0 0 4.39 0 8.29 8.29 0 0 0 0-8.46 2.6 2.6 0 0 0 -2.21-1.16z" fill="#f9537e"/><path d="m102.73 117.81-3.09 5.38a6.3 6.3 0 0 1 4.13 2 6.22 6.22 0 0 1 -.15 8.68 6.08 6.08 0 0 1 -4.43 1.81 6.23 6.23 0 0 1 -6.26-6.23 6.38 6.38 0 0 1 .77-3c.09-.17.25-.49.33-.61l4.63-8zm-.81 11.61a2.73 2.73 0 0 0 -2.7-2.7 2.69 2.69 0 1 0 2.71 2.69z" fill="#f9537e"/><path d="m90.4 96.42-5.65 17.88h-3.75l4.48-14.39h-7.26v-3.49z" fill="#323392"/><path d="m101.74 94.14-7.66 22.35h-3.08l7.66-22.35z" fill="#323392"/><path d="m82.89 116.68a5.94 5.94 0 0 1 5.09 2.7 11.69 11.69 0 0 1 .02 12.62 6 6 0 0 1 -5.09 2.68c-4.4 0-6.94-4.21-6.94-9s2.54-9 6.92-9zm0 3.61a2.6 2.6 0 0 0 -2.19 1.16 7.19 7.19 0 0 0 -1.17 4.23 7.1 7.1 0 0 0 1.17 4.23 2.66 2.66 0 0 0 4.39 0 8.29 8.29 0 0 0 0-8.46 2.6 2.6 0 0 0 -2.21-1.16z" fill="#323392"/><path d="m100.73 116.81-3.09 5.38a6.3 6.3 0 0 1 4.13 2 6.22 6.22 0 0 1 -.15 8.68 6.08 6.08 0 0 1 -4.43 1.81 6.23 6.23 0 0 1 -6.26-6.23 6.38 6.38 0 0 1 .77-3c.09-.17.25-.49.33-.61l4.63-8zm-.81 11.61a2.73 2.73 0 0 0 -2.7-2.7 2.69 2.69 0 1 0 2.71 2.69z" fill="#323392"/></g><path d="m48.8 125.13 6.83-5.37.09-8.74 10-13h-27l10 13z" fill="#f9537e"/><path d="m46.8 124.13 6.83-5.37.09-8.74 10-13h-27l10 13z" fill="#323392"/><path d="m137.87 2.61v7.07h-8.73v28.44h-7.14v-28.44h-8.74v-7.07z" fill="#323392" transform="translate(-1.03 .02)"/><path d="m138.87 96.61v7.07h-8.73v28.44h-7.14v-28.44h-8.74v-7.07z" fill="#f9537e" transform="translate(-1.03 .02)"/><path d="m137.87 94.61v7.07h-8.73v28.44h-7.14v-28.44h-8.74v-7.07z" fill="#323392" transform="translate(-1.03 .02)"/><path d="m161.72 19.05-10.12-10.11-4.99 4.98 15.11 15.11 4.99-4.99 9.19-9.19 4.46 4.47 1.44-15.36-15.36 1.44 4.47 4.46z" fill="#323392"/><path d="m163.72 110.05-10.12-10.11-4.99 4.98 15.11 15.11 4.99-4.99 9.19-9.19 4.46 4.47 1.44-15.37-15.36 1.45 4.47 4.46z" fill="#f9537e"/><path d="m161.72 109.05-10.12-10.11-4.99 4.98 15.11 15.11 4.99-4.99 9.19-9.19 4.46 4.47 1.44-15.37-15.36 1.45 4.47 4.46z" fill="#323392"/><path d="m216.19 4.33-24.61 24.61" fill="none" stroke="#323392" stroke-miterlimit="10" stroke-width="6.83"/><path d="m191.58 4.33 24.61 24.61" fill="none" stroke="#323392" stroke-miterlimit="10" stroke-width="6.83"/><path d="m48.22 74.13 6.84-5.37.08-8.74 10-13h-27l10 13z" fill="#eeeded"/><path d="m90.4 49.42-5.65 17.88h-3.75l4.48-14.39h-7.26v-3.49z" fill="#eeeded" transform="translate(-1.03 .02)"/><path d="m101.74 47.14-7.66 22.35h-3.08l7.66-22.35z" fill="#eeeded" transform="translate(-1.03 .02)"/><path d="m82.89 69.68a5.94 5.94 0 0 1 5.11 2.7 11.69 11.69 0 0 1 0 12.62 6 6 0 0 1 -5.09 2.68c-4.4 0-6.94-4.21-6.94-9s2.54-9 6.92-9zm0 3.61a2.6 2.6 0 0 0 -2.19 1.16 7.19 7.19 0 0 0 -1.17 4.23 7.1 7.1 0 0 0 1.17 4.23 2.66 2.66 0 0 0 4.39 0 8.29 8.29 0 0 0 0-8.46 2.6 2.6 0 0 0 -2.21-1.16z" fill="#eeeded" transform="translate(-1.03 .02)"/><path d="m100.73 69.81-3.09 5.38a6.3 6.3 0 0 1 4.13 2 6.22 6.22 0 0 1 -.15 8.68 6.08 6.08 0 0 1 -4.43 1.81 6.23 6.23 0 0 1 -6.26-6.23 6.38 6.38 0 0 1 .77-3c.09-.17.25-.49.33-.61l4.63-8zm-.81 11.61a2.73 2.73 0 0 0 -2.7-2.7 2.69 2.69 0 1 0 2.71 2.69z" fill="#eeeded" transform="translate(-1.03 .02)"/><path d="m137.87 49.61v7.07h-8.73v28.44h-7.14v-28.44h-8.74v-7.07z" fill="#eeeded" transform="translate(-1.03 .02)"/><path d="m161.72 66.05-10.12-10.11-4.99 4.98 15.11 15.11 4.99-4.99 9.19-9.19 4.46 4.47 1.44-15.37-15.36 1.45 4.47 4.46z" fill="#eeeded"/><path d="m216.19 51.33-24.61 24.61" fill="none" stroke="#eeeded" stroke-miterlimit="10" stroke-width="6.83"/><path d="m191.58 51.33 24.61 24.61" fill="none" stroke="#eeeded" stroke-miterlimit="10" stroke-width="6.83"/><path d="m217.19 97.33-24.61 24.61" fill="none" stroke="#f9537e" stroke-miterlimit="10" stroke-width="6.83"/><path d="m192.58 97.33 24.61 24.61" fill="none" stroke="#f9537e" stroke-miterlimit="10" stroke-width="6.83"/><path d="m216.19 95.33-24.61 24.61" fill="none" stroke="#323392" stroke-miterlimit="10" stroke-width="6.83"/><path d="m191.58 95.33 24.61 24.61" fill="none" stroke="#323392" stroke-miterlimit="10" stroke-width="6.83"/></svg>