<svg viewBox="0 0 50 50" xmlns="http://www.w3.org/2000/svg"><circle cx="25" cy="25" fill="#f9537e" r="25"/><g fill="#eeeded" transform="translate(-3.95 -2.67)"><path d="m9.91 18.21.49-.94 4.69 2.46-.5.94z"/><path d="m11.41 15.44a.73.73 0 0 1 1-.18 1.35 1.35 0 0 1 .56.83 1.23 1.23 0 0 1 0 .53c0 .1-.27.35-.34.35s-.06-.09 0-.26a.27.27 0 0 0 -.18-.33.66.66 0 0 1 -.79 0 .69.69 0 0 1 -.25-.94z"/><path d="m17.21 14.26-.4-4.37 3.57 4.11-.8.7-1.44-1.7.24 2.58-2.54-.58 1.45 1.65-.8.7-3.57-4.05z"/><path d="m20.78 8 1-.38 1.91 4.93-1 .39z"/><path d="m27.15 9.4-.45-2.9 1.05-.17.83 5.36-3.58-2.52.45 2.91-1.06.16-.82-5.35z"/><path d="m33.11 6.73-.11 1-1.29-.14-.46 4.22-1.06-.12.45-4.21-1.29-.14.11-1z"/><path d="m37.65 8.2-.36 1-2-.71-.35 1 1.5.54-.36 1-1.5-.53-.36 1 2 .72-.35 1-3-1.07 1.78-5z"/><path d="m39.29 9 1.43 1a2 2 0 0 1 .85 1.22 1.47 1.47 0 0 1 -.25 1.28l-.07.12a1.85 1.85 0 0 1 -.85.65 1.22 1.22 0 0 1 -.8 0l-.05 2.28-1.07-.73v-2.79l-1.27 1.97-.88-.59zm1.1 2.89a.68.68 0 0 0 .11-.54 1 1 0 0 0 -.42-.54l-.5-.34-.82 1.21.34.23.3.2a.73.73 0 0 0 .99-.22z"/><path d="m45.86 14.69-.79.71-1.42-1.58-.79.71 1.06 1.18-.78.71-1.07-1.18-.79.71 1.42 1.58-.78.7-2.13-2.36 3.93-3.55z"/><path d="m43.81 19.4a.61.61 0 0 0 .77.27c.42-.23.16-.83.09-1.21a1.66 1.66 0 0 1 .69-1.78 1.62 1.62 0 0 1 1.76 2.7l-.7-.82a.54.54 0 0 0 .2-.72.54.54 0 0 0 -.73-.21c-.42.23-.23.82-.15 1.19a1.57 1.57 0 0 1 -.64 1.8 1.68 1.68 0 0 1 -2.23-.69 1.7 1.7 0 0 1 .39-2.14l.71.81a.6.6 0 0 0 -.16.8z"/><path d="m49.89 23.67-1 .28-.35-1.25-4.07 1.14-.29-1 4.08-1.14-.35-1.26 1-.28z"/><path d="m50.27 28.38-1.06.05-.1-2.12h-1.06l.07 1.6-1.06.09-.06-1.6-1.07.05.1 2.13-1.03.05-.14-3.19 5.3-.25z"/><path d="m49.83 31.61a2.67 2.67 0 0 1 -1.16 1.73 2.57 2.57 0 0 1 -2 .3 2.5 2.5 0 0 1 -1.67-1.08 2.69 2.69 0 0 1 -.35-2.06l.3-1.37 5.16 1.11-.29 1.37zm-1-.22.08-.34-3.11-.66-.07.34a1.49 1.49 0 0 0 1.22 1.88 1.51 1.51 0 0 0 1.85-1.22z"/><path d="m44.32 33.62a.67.67 0 0 1 .34.89.68.68 0 0 1 -.89.35.67.67 0 0 1 -.34-.89.68.68 0 0 1 .89-.35zm4.37 2-.5 1.13-3.38-1.66.36-.81c1.22.46 2.3.85 3.52 1.31z"/><path d="m26.64 25.67a1.74 1.74 0 0 1 1.77-1.67h1.77v-4.26h-3.55a5.22 5.22 0 0 0 -5.3 5.14v4.26h-3.55v4.26h3.55l.06 8.37a15.88 15.88 0 0 0 5.34 1.73l-.07-10.14h3.56l1.78-4.36h-5.33z"/></g></svg>