<svg id="Layer_1" data-name="Layer 1" xmlns="http://www.w3.org/2000/svg" viewBox="0 0 168.73 168.72"><defs><style>.cls-1{font-size:15.22px;fill:#f9537e;font-family:BigJohn,Big John}</style></defs><title>last-winner-typo</title><text class="cls-1" transform="rotate(-45.02 86.864 15.202)">L</text><text class="cls-1" transform="matrix(.82 -.58 .58 .82 21.21 59.14)">A</text><text class="cls-1" transform="rotate(-25.57 130.489 -43.094)">S</text><text class="cls-1" transform="rotate(-16.57 185.202 -110.941)">T</text><text class="cls-1" transform="rotate(1.02 -2441.116 3184.96)">M</text><text class="cls-1" transform="rotate(13.59 -150.426 318.385)">O</text><text class="cls-1" transform="rotate(25.23 -64.282 210.28)">N</text><text class="cls-1" transform="rotate(35.46 -35 173.256)">T</text><text class="cls-1" transform="rotate(45.55 -18.357 151.53)">H</text><text class="cls-1" transform="rotate(53.19 -11.797 144.535)">’</text><text class="cls-1" transform="rotate(59.55 -5.11 134.942)">S</text><text class="cls-1" transform="rotate(78.53 8.986 116.64)">W</text><text class="cls-1" transform="rotate(89.4 10.082 114.649)">I</text><text class="cls-1" transform="rotate(97.86 14.916 108.938)">N</text><text class="cls-1" transform="matrix(-.33 .95 -.95 -.33 123.2 121.06)">N</text><text class="cls-1" transform="matrix(-.48 .87 -.87 -.48 119.11 132.53)">E</text><text class="cls-1" transform="rotate(129 23.534 97.386)">R</text></svg>