<svg id="Layer_1" data-name="Layer 1" xmlns="http://www.w3.org/2000/svg" viewBox="0 0 168.73 168.72"><defs><style>.cls-1{font-size:15.22px;fill:#f9537e;font-family:BigJohn, Big John;}</style></defs><title>last-winner-typo</title><text class="cls-1" transform="translate(14.71 65.9) rotate(-45.02)">L</text><text class="cls-1" transform="matrix(0.82, -0.58, 0.58, 0.82, 21.21, 59.14)">A</text><text class="cls-1" transform="translate(31.38 52.1) rotate(-25.57)">S</text><text class="cls-1" transform="translate(39.33 48.21) rotate(-16.57)">T</text><text class="cls-1" transform="translate(49.68 45.27) rotate(-8.51)"> </text><text class="cls-1" transform="translate(56.31 43.96) rotate(1.02)">M</text><text class="cls-1" transform="translate(70.6 44.26) rotate(13.59)">O</text><text class="cls-1" transform="translate(83.5 47.46) rotate(25.23)">N</text><text class="cls-1" transform="translate(94.02 52.44) rotate(35.46)">T</text><text class="cls-1" transform="translate(102.67 58.52) rotate(45.55)">H</text><text class="cls-1" transform="translate(110.99 67.38) rotate(53.19)">’</text><text class="cls-1" transform="translate(113.81 70.96) rotate(59.55)">S</text><text class="cls-1" transform="translate(118.29 78.71) rotate(66.85)"> </text><text class="cls-1" transform="translate(121.51 84.64) rotate(78.53)">W</text><text class="cls-1" transform="matrix(0.01, 1, -1, 0.01, 124.63, 103.42)">I</text><text class="cls-1" transform="translate(124.87 109.06) rotate(97.86)">N</text><text class="cls-1" transform="matrix(-0.33, 0.95, -0.95, -0.33, 123.2, 121.06)">N</text><text class="cls-1" transform="matrix(-0.48, 0.87, -0.87, -0.48, 119.11, 132.53)">E</text><text class="cls-1" transform="matrix(-0.63, 0.78, -0.78, -0.63, 114.57, 140.87)">R</text></svg>