<svg viewBox="0 0 168 168" xmlns="http://www.w3.org/2000/svg"><path d="m0 0h168v168h-168z" fill="#eeeded"/><g transform="translate(-2.5 -2)"><path d="m106.31 21.4h32.56v1.39h-31.23v23.46h29.07v1.4h-29.07v26.05h-1.33z" fill="#f9537e"/><path d="m73.16 94.3v1.34h-20v51h-1.34v-51h-19.94v-1.34z" fill="#f9537e"/><path d="m56 53.35h-9.15v9.07h9.15a4.53 4.53 0 0 0 4.53-4.54 4.63 4.63 0 0 0 -4.53-4.53z" fill="none"/><path d="m68.31 46.38a14.88 14.88 0 0 0 1.55-16.52l-36.77 36.77v7.07h25.8a15.25 15.25 0 0 0 9.42-27.32zm-12.31 16.04h-9.15v-9.07h9.15a4.63 4.63 0 0 1 4.53 4.53 4.53 4.53 0 0 1 -4.53 4.54z" fill="#343790"/><path d="m33.09 21.4h23.11a15.72 15.72 0 0 1 13.63 8.37l27.76-27.77h-95.09v95.09l30.59-30.58z" fill="#343790"/><path d="m58 37.31a4.53 4.53 0 0 0 -4.53-4.53h-6.62v9.06h6.62a4.53 4.53 0 0 0 4.53-4.53z" fill="#343790"/><path d="m128.6 105.91h-8.5v15h4.53l10.75-10.75a7.44 7.44 0 0 0 -6.78-4.25z" fill="none"/><path d="m120.1 120.9v-15h8.5a7.44 7.44 0 0 1 6.78 4.24l8.27-8.27a19.24 19.24 0 0 0 -15.25-7.57h-22.06v44.89l18.29-18.29z" fill="#f9537e"/><path d="m75.41 170h95.09v-95.09zm53.25-37.25h-8.56v13.86h-13.76v-7.42l18.29-18.29h4a7.45 7.45 0 0 0 7.55-7.34 7.6 7.6 0 0 0 -.77-3.41l8.27-8.27a19.16 19.16 0 0 1 -15 30.87z" fill="#f9537e"/></g></svg>