<svg viewBox="0 0 87.2 81.97" xmlns="http://www.w3.org/2000/svg"><g fill="#eeeded"><path d="M45.06 5.94a18.57 18.57 0 0 1-5.31 1.46 9.3 9.3 0 0 0 4.06-5.08 19 19 0 0 1-5.87 2.24 9.25 9.25 0 0 0-15.75 8.43 26.25 26.25 0 0 1-19-9.66 9.14 9.14 0 0 0-1.3 4.61A9.24 9.24 0 0 0 6 15.63a9.27 9.27 0 0 1-4.19-1.12v.11a9.26 9.26 0 0 0 7.41 9.07 9.25 9.25 0 0 1-2.43.32 9 9 0 0 1-1.74-.17 9.24 9.24 0 0 0 8.63 6.42 18.53 18.53 0 0 1-11.48 4 20 20 0 0 1-2.2-.13 26.11 26.11 0 0 0 14.17 4.11c17 0 26.29-14.08 26.29-26.3v-1.19a18.62 18.62 0 0 0 4.6-4.81zm27.51 1.8v5.51h-4v6.74h4v20h8.29v-20h5.56s.52-3.23.77-6.76h-6.3V8.62a2 2 0 0 1 1.79-1.61h4.52v-7h-6.14c-8.7-.01-8.49 6.73-8.49 7.73zM17.4 56.49h-3.67a.72.72 0 0 0 0 1.44h2.86a2.94 2.94 0 1 1-.78-2.81.71.71 0 0 0 1 0 .72.72 0 0 0 0-1 4.35 4.35 0 0 0-3.1-1.28 4.39 4.39 0 1 0 4.39 4.39.72.72 0 0 0-.7-.74zm15.46-5.96a4.33 4.33 0 1 0 4.33 4.33 4.33 4.33 0 0 0-4.33-4.33zm0 7.22a2.89 2.89 0 1 1 2.89-2.89 2.89 2.89 0 0 1-2.89 2.89z"/><path d="M32.86 45.94a8.93 8.93 0 0 0-7.52 4.1h-16a3.48 3.48 0 0 0-3.53 3.45v25a3.48 3.48 0 0 0 3.48 3.45h25a3.48 3.48 0 0 0 3.52-3.45V62.94a17.5 17.5 0 0 1 1.42-1.72 9 9 0 0 0-6.37-15.28zM7.25 53.49a2 2 0 0 1 2-2h15.33a9 9 0 0 0 .28 7.45L7.25 76.74zm2 27a2 2 0 0 1-1.93-1.76l18.32-18.57a8.65 8.65 0 0 0 .89 1c.29.31.56.62.82.94zm19-17.23a26.16 26.16 0 0 1 3.58 8l-5.84-5.76zm-17 17.23l10.66-10.8 10.9 10.84zm25.11-2a2 2 0 0 1-1.53 2L22.89 68.71l2.06-2.09 11.38 11.23zm0-2.67l-2.79-2.75v-.13a26.9 26.9 0 0 1 2.76-7.75v10.63zm1.83-15.63a24.65 24.65 0 0 0-5.26 9.55 24.56 24.56 0 0 0-5.27-9.55 7.51 7.51 0 1 1 10.6 0z"/></g></svg>