<svg viewBox="0 0 172.25 24.5" xmlns="http://www.w3.org/2000/svg"><path d="m0 0h172.25v24.5h-172.25z" fill="#eeeded"/><g fill="#dadada"><path d="m40.78 18.61h1.55v5.04h1.27v-5.04h1.54v-1.26h-4.36z"/><path d="m168.42 12.2h1.1l2.71-7.9h-1.11z"/><path d="m39.42 20.79a2 2 0 0 0 .4-1.2v-.17a1.81 1.81 0 0 0 -.61-1.42 2.34 2.34 0 0 0 -1.65-.64h-2.05v6.3h1.26v-2.8l1.81 2.79h1.55l-1.46-2.28a1.44 1.44 0 0 0 .75-.58zm-1.74-.44h-.91v-1.74h.71a1.16 1.16 0 0 1 .78.25.82.82 0 0 1 .25.6.87.87 0 0 1 -.83.89z"/><path d="m36.71 9.53-1.26.27a2 2 0 0 0 2 1.65 2 2 0 0 0 2-1.92 1.87 1.87 0 0 0 -1.45-1.71c-.44-.13-1.16-.28-1.16-.85a.64.64 0 0 1 1.28 0l1.26-.26a1.92 1.92 0 0 0 -3.86.29 2 2 0 0 0 1.48 1.71c.43.15 1.21.24 1.21.81a.74.74 0 0 1 -.74.64.73.73 0 0 1 -.76-.63z"/><path d="m34 8.54a2 2 0 0 0 .4-1.2v-.17a1.78 1.78 0 0 0 -.61-1.43 2.34 2.34 0 0 0 -1.65-.64h-2.05v6.3h1.27v-2.79l1.81 2.79h1.54l-1.46-2.28a1.4 1.4 0 0 0 .75-.58zm-1.74-.44h-.91v-1.74h.72a1.2 1.2 0 0 1 .78.25.86.86 0 0 1 .25.6.87.87 0 0 1 -.84.89z"/><path d="m45.79 4.3-2.71 7.9h1.11l2.71-7.9z"/><path d="m61.4 6a3.2 3.2 0 0 0 -5.4 2.26 3 3 0 0 0 .94 2.25 3.2 3.2 0 0 0 4.51 0 3 3 0 0 0 .94-2.25 3.08 3.08 0 0 0 -.99-2.26zm-.9 3.6a1.84 1.84 0 0 1 -1.35.56 1.91 1.91 0 0 1 -1.92-1.91 1.91 1.91 0 0 1 1.92-1.92 1.91 1.91 0 0 1 1.91 1.92 1.84 1.84 0 0 1 -.56 1.35z"/><path d="m5.49 5.07-1.88 4.98h3.25v1.35h1.26v-1.35h.63v-1.26h-.63v-2.45h-1.26v2.45h-1.35l1.35-3.71z"/><path d="m146.15 23.65h1.37l.42-1h2.16l.42 1h1.37l-2.89-6.43zm3.45-2.07h-1.16l.58-1.34z"/><path d="m53.73 11.4v-2.7l1.95-3.6h-1.44l-1.14 2.19-1.15-2.19h-1.43l1.95 3.6v2.7z"/><path d="m48.92 20.51a3.19 3.19 0 0 0 3.19 3.18 3.07 3.07 0 0 0 2.26-.93 3 3 0 0 0 .94-2.25 3.2 3.2 0 1 0 -6.39 0zm1.84-1.37a1.84 1.84 0 0 1 1.35-.56 1.91 1.91 0 0 1 1.89 1.92 1.91 1.91 0 0 1 -1.92 1.91 1.91 1.91 0 0 1 -1.88-1.91 1.84 1.84 0 0 1 .56-1.36z"/><path d="m2.45 17.35h-1.43l1.95 3.6v2.7h1.26v-2.7l1.95-3.6h-1.43l-1.15 2.19z"/><path d="m144.65 11.4h1.35l.42-1h2.16l.43 1h1.37l-2.86-6.4zm3.45-2.07h-1.16l.59-1.33z"/><path d="m135.35 17.35 1.95 3.6v2.7h1.26v-2.7l1.95-3.6h-1.44l-1.14 2.19-1.15-2.19z"/><path d="m23.37 11.4h1.37l.42-1h2.16l.42 1h1.37l-2.87-6.4zm3.45-2.07h-1.16l.58-1.33z"/><path d="m30.15 23.65.43-1h2.15l.43 1h1.37l-2.87-6.43-2.88 6.43zm1.51-3.41.57 1.34h-1.15z"/><path d="m168.57 16.55-2.71 7.9h1.11l2.71-7.9z"/><path d="m142.21 8.08-1.16-2.98-1.17 2.98-1.17-2.98h-1.36l2.53 6.44 1.15-3.13 1.18 3.13 2.53-6.44h-1.37z"/><path d="m17.74 21.16a1.3 1.3 0 0 1 -1.27 1.27 1.28 1.28 0 0 1 -1.27-1.27v-3.81h-1.28v3.82a2.45 2.45 0 0 0 .75 1.8 2.56 2.56 0 0 0 3.6 0 2.45 2.45 0 0 0 .75-1.8v-3.82h-1.28z"/><path d="m145.28 18.6v-1.26h-3.79v6.32h3.79v-1.26h-2.53v-1.27h1.9v-1.26h-1.9v-1.27z"/><path d="m15.15 7.29-1.15-2.19h-1.43l1.95 3.6v2.7h1.26v-2.7l1.95-3.6h-1.44z"/><path d="m20.39 17.35v6.3h1.27v-2.79l1.81 2.79h1.53l-1.46-2.28a1.44 1.44 0 0 0 .75-.58 2 2 0 0 0 .4-1.2v-.17a1.81 1.81 0 0 0 -.6-1.42 2.34 2.34 0 0 0 -1.65-.64zm3 2.11a.88.88 0 0 1 -.84.89h-.91v-1.74h.71a1.2 1.2 0 0 1 .79.25.86.86 0 0 1 .26.6z"/><path d="m9.65 17.3a3.21 3.21 0 0 0 -3.2 3.21 3 3 0 0 0 .94 2.25 3.07 3.07 0 0 0 2.26.93 3.06 3.06 0 0 0 2.25-.93 3 3 0 0 0 .94-2.25 3.21 3.21 0 0 0 -3.19-3.21zm1.35 4.55a1.84 1.84 0 0 1 -1.35.56 1.91 1.91 0 0 1 -1.92-1.91 1.91 1.91 0 0 1 1.92-1.92 1.91 1.91 0 0 1 1.91 1.92 1.84 1.84 0 0 1 -.56 1.35z"/><path d="m118.92 24.45h1.1l2.71-7.9h-1.11z"/><path d="m18.71 11.41h3.79v-1.26h-2.53v-1.27h1.9v-1.26h-1.9v-1.27h2.53v-1.26h-3.79z"/><path d="m151.38 5.1v6.3h3.79v-1.26h-2.53v-5.04z"/><path d="m95.15 23.65h1.37l.42-1h2.16l.43 1h1.37l-2.9-6.43zm3.45-2.07h-1.16l.56-1.34z"/><path d="m106.65 17.35v6.3h3.8v-1.26h-2.53v-5.04z"/><path d="m111.01 5.09h-1.27v3.49l-3.8-3.61v6.44h1.27v-3.5l3.8 3.62z"/><path d="m156.15 5.1v6.3h3.8v-1.26h-2.53v-5.04z"/><path d="m101.61 5.05a3.21 3.21 0 0 0 -3.19 3.21 3.19 3.19 0 0 0 3.19 3.18 3.07 3.07 0 0 0 2.26-.93 3 3 0 0 0 .94-2.25 3.21 3.21 0 0 0 -3.2-3.21zm1.39 4.55a1.84 1.84 0 0 1 -1.36.56 1.91 1.91 0 0 1 -1.94-1.91 1.91 1.91 0 0 1 1.91-1.92 1.91 1.91 0 0 1 1.92 1.92 1.84 1.84 0 0 1 -.53 1.35z"/><path d="m101.88 17.35v6.3h3.79v-1.26h-2.53v-5.04z"/><path d="m112.54 21.78-1.25.27a2 2 0 0 0 4-.27 1.87 1.87 0 0 0 -1.5-1.71c-.44-.13-1.15-.28-1.15-.85a.64.64 0 1 1 1.27 0l1.26-.26a1.91 1.91 0 1 0 -2.38 2c.44.15 1.21.24 1.21.81a.74.74 0 0 1 -.74.64.73.73 0 0 1 -.72-.63z"/><path d="m132.87 8.54a2.1 2.1 0 0 0 .4-1.2v-.17a1.81 1.81 0 0 0 -.61-1.43 2.34 2.34 0 0 0 -1.66-.64h-2v6.3h1.26v-2.79l1.74 2.79h1.55l-1.47-2.28a1.43 1.43 0 0 0 .79-.58zm-1.74-.44h-.91v-1.74h.71a1.16 1.16 0 0 1 .78.25.82.82 0 0 1 .25.6.87.87 0 0 1 -.83.89z"/><path d="m126.39 22.3h3.25v1.35h1.26v-1.35h.63v-1.26h-.63v-2.45h-1.26v2.45h-1.35l1.35-3.71-1.37-.01z"/><path d="m122.49 5.1v3.82a2.55 2.55 0 1 0 5.09 0v-3.82h-1.27v3.81a1.28 1.28 0 0 1 -2.55 0v-3.81z"/><path d="m118.21 5.05a3.19 3.19 0 0 0 -3.21 3.21 3.06 3.06 0 0 0 .93 2.25 3.21 3.21 0 0 0 4.52 0 3 3 0 0 0 .94-2.25 3.08 3.08 0 0 0 -.92-2.26 3.11 3.11 0 0 0 -2.26-.95zm1.35 4.55a1.92 1.92 0 0 1 -3.27-1.35 1.92 1.92 0 0 1 3.84 0 1.81 1.81 0 0 1 -.57 1.35z"/><path d="m158.3 19.21a2 2 0 0 0 1.45 1.79c.43.15 1.21.24 1.21.81a.74.74 0 0 1 -.74.64.73.73 0 0 1 -.74-.64l-1.26.27a2 2 0 0 0 2 1.65 2 2 0 0 0 2-1.92 1.87 1.87 0 0 0 -1.49-1.71c-.44-.13-1.16-.28-1.16-.85a.64.64 0 0 1 1.28 0l1.26-.26a1.92 1.92 0 0 0 -3.83.26z"/><path d="m73 17.35v3.82a2.55 2.55 0 1 0 5.09 0v-3.82h-1.28v3.81a1.28 1.28 0 0 1 -2.55 0v-3.81z"/><path d="m152.87 17.35v6.3h1.27v-2.79l1.86 2.79h1.54l-1.54-2.28a1.4 1.4 0 0 0 .75-.58 2 2 0 0 0 .4-1.2v-.17a1.78 1.78 0 0 0 -.61-1.43 2.34 2.34 0 0 0 -1.65-.64zm3 2.11a.87.87 0 0 1 -.84.89h-.91v-1.74h.72a1.2 1.2 0 0 1 .78.25.86.86 0 0 1 .26.6z"/><path d="m83.37 20.79a2.1 2.1 0 0 0 .4-1.2v-.17a1.81 1.81 0 0 0 -.61-1.42 2.34 2.34 0 0 0 -1.65-.64h-2.06v6.3h1.26v-2.8l1.81 2.79h1.55l-1.47-2.28a1.43 1.43 0 0 0 .77-.58zm-1.74-.44h-.91v-1.74h.71a1.16 1.16 0 0 1 .78.25.82.82 0 0 1 .25.6.87.87 0 0 1 -.83.89z"/><path d="m87.85 17.35 2.53 6.44 1.15-3.13 1.18 3.13 2.53-6.44h-1.37l-1.16 2.98-1.16-2.98-1.17 2.98-1.17-2.98z"/><path d="m63.42 5.1v3.82a2.45 2.45 0 0 0 .75 1.8 2.56 2.56 0 0 0 3.6 0 2.45 2.45 0 0 0 .75-1.8v-3.82h-1.28v3.81a1.3 1.3 0 0 1 -1.24 1.27 1.28 1.28 0 0 1 -1.3-1.27v-3.81z"/><path d="m73.8 8.54a2 2 0 0 0 .4-1.2v-.17a1.81 1.81 0 0 0 -.61-1.43 2.34 2.34 0 0 0 -1.65-.64h-2v6.3h1.27v-2.79l1.79 2.79h1.54l-1.49-2.28a1.44 1.44 0 0 0 .75-.58zm-1.74-.44h-.91v-1.74h.71a1.2 1.2 0 0 1 .79.25.86.86 0 0 1 .25.6.88.88 0 0 1 -.84.89z"/><path d="m66.45 18.24a3.13 3.13 0 0 0 -.93 2.27 3.06 3.06 0 0 0 .93 2.25 3.21 3.21 0 0 0 4.52 0 3 3 0 0 0 .94-2.25 3.08 3.08 0 0 0 -.91-2.27 3.19 3.19 0 0 0 -4.52 0zm4.18 2.26a1.92 1.92 0 0 1 -3.84 0 1.92 1.92 0 0 1 3.84 0z"/><path d="m60.24 20.83-3.8-3.61v6.44h1.27v-3.5l3.8 3.62v-6.44h-1.27z"/><path d="m88.92 8.54a2 2 0 0 0 .4-1.2v-.17a1.81 1.81 0 0 0 -.61-1.43 2.34 2.34 0 0 0 -1.65-.64h-2.06v6.3h1.26v-2.79l1.81 2.79h1.55l-1.45-2.28a1.44 1.44 0 0 0 .75-.58zm-1.74-.44h-.91v-1.74h.73a1.16 1.16 0 0 1 .78.25.82.82 0 0 1 .25.6.87.87 0 0 1 -.85.89z"/><path d="m93.1 11.4v-5.04h1.54v-1.26h-4.36v1.26h1.55v5.04z"/><path d="m162 9.53-1.25.27a2 2 0 0 0 4-.27 1.87 1.87 0 0 0 -1.5-1.71c-.44-.13-1.15-.28-1.15-.85a.64.64 0 1 1 1.27 0l1.26-.26a1.92 1.92 0 0 0 -3.82.26 1.94 1.94 0 0 0 1.44 1.75c.44.15 1.21.24 1.21.81a.74.74 0 0 1 -.74.64.73.73 0 0 1 -.72-.64z"/><path d="m78.28 11.4h1.37l.43-1h2.15l.43 1h1.34l-2.84-6.4zm3.45-2.07h-1.15l.58-1.33z"/></g></svg>