<svg viewBox="0 0 172.25 24.5" xmlns="http://www.w3.org/2000/svg"><path d="M0 0h172.25v24.5H0z" fill="#eeeded"/><path d="M40.78 18.61h1.55v5.04h1.27v-5.04h1.54v-1.26h-4.36zm127.64-6.41h1.1l2.71-7.9h-1.11zm-129 8.59a2 2 0 0 0 .4-1.2v-.17a1.81 1.81 0 0 0-.61-1.42 2.34 2.34 0 0 0-1.65-.64h-2.05v6.3h1.26v-2.8l1.81 2.79h1.55l-1.46-2.28a1.44 1.44 0 0 0 .75-.58zm-1.74-.44h-.91v-1.74h.71a1.16 1.16 0 0 1 .78.25.82.82 0 0 1 .25.6.87.87 0 0 1-.83.89zm-.97-10.82l-1.26.27a2 2 0 0 0 2 1.65 2 2 0 0 0 2-1.92A1.87 1.87 0 0 0 38 7.82c-.44-.13-1.16-.28-1.16-.85a.64.64 0 0 1 1.28 0l1.26-.26a1.92 1.92 0 0 0-3.86.29A2 2 0 0 0 37 8.71c.43.15 1.21.24 1.21.81a.74.74 0 0 1-.74.64.73.73 0 0 1-.76-.63zM34 8.54a2 2 0 0 0 .4-1.2v-.17a1.78 1.78 0 0 0-.61-1.43 2.34 2.34 0 0 0-1.65-.64h-2.05v6.3h1.27V8.61l1.81 2.79h1.54l-1.46-2.28a1.4 1.4 0 0 0 .75-.58zm-1.74-.44h-.91V6.36h.72a1.2 1.2 0 0 1 .78.25.86.86 0 0 1 .25.6.87.87 0 0 1-.84.89zm13.53-3.8l-2.71 7.9h1.11l2.71-7.9zM61.4 6A3.2 3.2 0 0 0 56 8.26a3 3 0 0 0 .94 2.25 3.2 3.2 0 0 0 4.51 0 3 3 0 0 0 .94-2.25A3.08 3.08 0 0 0 61.4 6zm-.9 3.6a1.84 1.84 0 0 1-1.35.56 1.91 1.91 0 0 1-1.92-1.91 1.91 1.91 0 0 1 1.92-1.92 1.91 1.91 0 0 1 1.91 1.92 1.84 1.84 0 0 1-.56 1.35zM5.49 5.07l-1.88 4.98h3.25v1.35h1.26v-1.35h.63V8.79h-.63V6.34H6.86v2.45H5.51l1.35-3.71zm140.66 18.58h1.37l.42-1h2.16l.42 1h1.37L149 17.22zm3.45-2.07h-1.16l.58-1.34zM53.73 11.4V8.7l1.95-3.6h-1.44L53.1 7.29 51.95 5.1h-1.43l1.95 3.6v2.7zm-4.81 9.11a3.19 3.19 0 0 0 3.19 3.18 3.07 3.07 0 0 0 2.26-.93 3 3 0 0 0 .94-2.25 3.2 3.2 0 1 0-6.39 0zm1.84-1.37a1.84 1.84 0 0 1 1.35-.56A1.91 1.91 0 0 1 54 20.5a1.91 1.91 0 0 1-1.92 1.91 1.91 1.91 0 0 1-1.88-1.91 1.84 1.84 0 0 1 .56-1.36zM2.45 17.35H1.02l1.95 3.6v2.7h1.26v-2.7l1.95-3.6H4.75L3.6 19.54zm142.2-5.95H146l.42-1h2.16l.43 1h1.37L147.52 5zm3.45-2.07h-1.16l.59-1.33zm-12.75 8.02l1.95 3.6v2.7h1.26v-2.7l1.95-3.6h-1.44l-1.14 2.19-1.15-2.19zM23.37 11.4h1.37l.42-1h2.16l.42 1h1.37L26.24 5zm3.45-2.07h-1.16L26.24 8zm3.33 14.32l.43-1h2.15l.43 1h1.37l-2.87-6.43-2.88 6.43zm1.51-3.41l.57 1.34h-1.15zm136.91-3.69l-2.71 7.9h1.11l2.71-7.9zm-26.36-8.47l-1.16-2.98-1.17 2.98-1.17-2.98h-1.36l2.53 6.44 1.15-3.13 1.18 3.13 2.53-6.44h-1.37zM17.74 21.16a1.3 1.3 0 0 1-1.27 1.27 1.28 1.28 0 0 1-1.27-1.27v-3.81h-1.28v3.82a2.45 2.45 0 0 0 .75 1.8 2.56 2.56 0 0 0 3.6 0 2.45 2.45 0 0 0 .75-1.8v-3.82h-1.28zm127.54-2.56v-1.26h-3.79v6.32h3.79V22.4h-2.53v-1.27h1.9v-1.26h-1.9V18.6zM15.15 7.29L14 5.1h-1.43l1.95 3.6v2.7h1.26V8.7l1.95-3.6h-1.44zm5.24 10.06v6.3h1.27v-2.79l1.81 2.79H25l-1.46-2.28a1.44 1.44 0 0 0 .75-.58 2 2 0 0 0 .4-1.2v-.17a1.81 1.81 0 0 0-.6-1.42 2.34 2.34 0 0 0-1.65-.64zm3 2.11a.88.88 0 0 1-.84.89h-.91v-1.74h.71a1.2 1.2 0 0 1 .79.25.86.86 0 0 1 .26.6zM9.65 17.3a3.21 3.21 0 0 0-3.2 3.21 3 3 0 0 0 .94 2.25 3.07 3.07 0 0 0 2.26.93 3.06 3.06 0 0 0 2.25-.93 3 3 0 0 0 .94-2.25 3.21 3.21 0 0 0-3.19-3.21zM11 21.85a1.84 1.84 0 0 1-1.35.56 1.91 1.91 0 0 1-1.92-1.91 1.91 1.91 0 0 1 1.92-1.92 1.91 1.91 0 0 1 1.91 1.92 1.84 1.84 0 0 1-.56 1.35zm107.92 2.6h1.1l2.71-7.9h-1.11zM18.71 11.41h3.79v-1.26h-2.53V8.88h1.9V7.62h-1.9V6.35h2.53V5.09h-3.79zM151.38 5.1v6.3h3.79v-1.26h-2.53V5.1zM95.15 23.65h1.37l.42-1h2.16l.43 1h1.37L98 17.22zm3.45-2.07h-1.16l.56-1.34zm8.05-4.23v6.3h3.8v-1.26h-2.53v-5.04zm4.36-12.26h-1.27v3.49l-3.8-3.61v6.44h1.27v-3.5l3.8 3.62zm45.14.01v6.3h3.8v-1.26h-2.53V5.1zm-54.54-.05a3.21 3.21 0 0 0-3.19 3.21 3.19 3.19 0 0 0 3.19 3.18 3.07 3.07 0 0 0 2.26-.93 3 3 0 0 0 .94-2.25 3.21 3.21 0 0 0-3.2-3.21zM103 9.6a1.84 1.84 0 0 1-1.36.56 1.91 1.91 0 0 1-1.94-1.91 1.91 1.91 0 0 1 1.91-1.92 1.91 1.91 0 0 1 1.92 1.92A1.84 1.84 0 0 1 103 9.6zm-1.12 7.75v6.3h3.79v-1.26h-2.53v-5.04zm10.66 4.43l-1.25.27a2 2 0 0 0 4-.27 1.87 1.87 0 0 0-1.5-1.71c-.44-.13-1.15-.28-1.15-.85a.64.64 0 1 1 1.27 0l1.26-.26a1.91 1.91 0 1 0-2.38 2c.44.15 1.21.24 1.21.81a.74.74 0 0 1-.74.64.73.73 0 0 1-.72-.63zm20.33-13.24a2.1 2.1 0 0 0 .4-1.2v-.17a1.81 1.81 0 0 0-.61-1.43A2.34 2.34 0 0 0 131 5.1h-2v6.3h1.26V8.61L132 11.4h1.55l-1.47-2.28a1.43 1.43 0 0 0 .79-.58zm-1.74-.44h-.91V6.36h.71a1.16 1.16 0 0 1 .78.25.82.82 0 0 1 .25.6.87.87 0 0 1-.83.89zm-4.74 14.2h3.25v1.35h1.26V22.3h.63v-1.26h-.63v-2.45h-1.26v2.45h-1.35l1.35-3.71-1.37-.01zm-3.9-17.2v3.82a2.55 2.55 0 1 0 5.09 0V5.1h-1.27v3.81a1.28 1.28 0 0 1-2.55 0V5.1zm-4.28-.05A3.19 3.19 0 0 0 115 8.26a3.06 3.06 0 0 0 .93 2.25 3.21 3.21 0 0 0 4.52 0 3 3 0 0 0 .94-2.25 3.08 3.08 0 0 0-.92-2.26 3.11 3.11 0 0 0-2.26-.95zm1.35 4.55a1.92 1.92 0 0 1-3.27-1.35 1.92 1.92 0 0 1 3.84 0 1.81 1.81 0 0 1-.57 1.35zm38.74 9.61a2 2 0 0 0 1.45 1.79c.43.15 1.21.24 1.21.81a.74.74 0 0 1-.74.64.73.73 0 0 1-.74-.64l-1.26.27a2 2 0 0 0 2 1.65 2 2 0 0 0 2-1.92 1.87 1.87 0 0 0-1.49-1.71c-.44-.13-1.16-.28-1.16-.85a.64.64 0 0 1 1.28 0l1.26-.26a1.92 1.92 0 0 0-3.83.26zM73 17.35v3.82a2.55 2.55 0 1 0 5.09 0v-3.82h-1.28v3.81a1.28 1.28 0 0 1-2.55 0v-3.81zm79.87 0v6.3h1.27v-2.79l1.86 2.79h1.54L156 21.37a1.4 1.4 0 0 0 .75-.58 2 2 0 0 0 .4-1.2v-.17a1.78 1.78 0 0 0-.61-1.43 2.34 2.34 0 0 0-1.65-.64zm3 2.11a.87.87 0 0 1-.84.89h-.91v-1.74h.72a1.2 1.2 0 0 1 .78.25.86.86 0 0 1 .26.6zm-72.5 1.33a2.1 2.1 0 0 0 .4-1.2v-.17a1.81 1.81 0 0 0-.61-1.42 2.34 2.34 0 0 0-1.65-.64h-2.06v6.3h1.26v-2.8l1.81 2.79h1.55l-1.47-2.28a1.43 1.43 0 0 0 .77-.58zm-1.74-.44h-.91v-1.74h.71a1.16 1.16 0 0 1 .78.25.82.82 0 0 1 .25.6.87.87 0 0 1-.83.89zm6.22-3l2.53 6.44 1.15-3.13 1.18 3.13 2.53-6.44h-1.37l-1.16 2.98-1.16-2.98-1.17 2.98-1.17-2.98zM63.42 5.1v3.82a2.45 2.45 0 0 0 .75 1.8 2.56 2.56 0 0 0 3.6 0 2.45 2.45 0 0 0 .75-1.8V5.1h-1.28v3.81A1.3 1.3 0 0 1 66 10.18a1.28 1.28 0 0 1-1.3-1.27V5.1zM73.8 8.54a2 2 0 0 0 .4-1.2v-.17a1.81 1.81 0 0 0-.61-1.43 2.34 2.34 0 0 0-1.65-.64h-2v6.3h1.27V8.61L73 11.4h1.54l-1.49-2.28a1.44 1.44 0 0 0 .75-.58zm-1.74-.44h-.91V6.36h.71a1.2 1.2 0 0 1 .79.25.86.86 0 0 1 .25.6.88.88 0 0 1-.84.89zm-5.61 10.14a3.13 3.13 0 0 0-.93 2.27 3.06 3.06 0 0 0 .93 2.25 3.21 3.21 0 0 0 4.52 0 3 3 0 0 0 .94-2.25 3.08 3.08 0 0 0-.91-2.27 3.19 3.19 0 0 0-4.52 0zm4.18 2.26a1.92 1.92 0 0 1-3.84 0 1.92 1.92 0 0 1 3.84 0zm-10.39.33l-3.8-3.61v6.44h1.27v-3.5l3.8 3.62v-6.44h-1.27zM88.92 8.54a2 2 0 0 0 .4-1.2v-.17a1.81 1.81 0 0 0-.61-1.43 2.34 2.34 0 0 0-1.65-.64H85v6.3h1.26V8.61l1.81 2.79h1.55l-1.45-2.28a1.44 1.44 0 0 0 .75-.58zm-1.74-.44h-.91V6.36H87a1.16 1.16 0 0 1 .78.25.82.82 0 0 1 .25.6.87.87 0 0 1-.85.89zm5.92 3.3V6.36h1.54V5.1h-4.36v1.26h1.55v5.04zM162 9.53l-1.25.27a2 2 0 0 0 4-.27 1.87 1.87 0 0 0-1.5-1.71c-.44-.13-1.15-.28-1.15-.85a.64.64 0 1 1 1.27 0l1.26-.26a1.92 1.92 0 0 0-3.82.26 1.94 1.94 0 0 0 1.44 1.75c.44.15 1.21.24 1.21.81a.74.74 0 0 1-.74.64.73.73 0 0 1-.72-.64zM78.28 11.4h1.37l.43-1h2.15l.43 1H84L81.16 5zm3.45-2.07h-1.15L81.16 8z" fill="#dadada"/></svg>